<svg width="229" height="230" viewBox="0 0 229 230" fill="none" xmlns="http://www.w3.org/2000/svg">
<mask id="mask0_5_8431" style="mask-type:alpha" maskUnits="userSpaceOnUse" x="170" y="109" width="17" height="20">
<path d="M186.411 114.495L179.115 110.026C178.641 109.735 177.764 110.305 177.156 111.297L171.101 121.182C170.493 122.175 170.384 123.215 170.858 123.505L178.155 127.974C178.629 128.265 179.506 127.695 180.114 126.703L186.168 116.818C186.776 115.825 186.885 114.785 186.411 114.495Z" fill="white"/>
</mask>
<g mask="url(#mask0_5_8431)">
<path d="M186.411 114.495L179.115 110.026C178.641 109.735 177.764 110.305 177.156 111.297L171.101 121.182C170.493 122.175 170.384 123.215 170.858 123.505L178.155 127.974C178.629 128.265 179.506 127.695 180.114 126.703L186.168 116.818C186.776 115.825 186.885 114.785 186.411 114.495Z" fill="white"/>
</g>
<mask id="mask1_5_8431" style="mask-type:alpha" maskUnits="userSpaceOnUse" x="162" y="103" width="17" height="20">
<path d="M178.398 108.495L171.102 104.026C170.628 103.735 169.751 104.305 169.143 105.297L163.088 115.182C162.48 116.175 162.371 117.215 162.845 117.505L170.142 121.974C170.616 122.265 171.493 121.695 172.101 120.703L178.156 110.818C178.764 109.825 178.872 108.785 178.398 108.495Z" fill="white"/>
</mask>
<g mask="url(#mask1_5_8431)">
<path d="M178.398 108.495L171.102 104.026C170.628 103.735 169.751 104.305 169.143 105.297L163.088 115.182C162.48 116.175 162.371 117.215 162.845 117.505L170.142 121.974C170.616 122.265 171.493 121.695 172.101 120.703L178.156 110.818C178.764 109.825 178.872 108.785 178.398 108.495Z" fill="white"/>
</g>
<path d="M155.838 128.213C155.377 127.952 155.239 127.316 155.531 126.801L168.679 103.614C168.962 103.116 169.468 102.785 169.99 102.755C170.857 102.705 172.409 102.935 174.907 104.352C176.856 105.457 178.547 107.554 180.043 109.408C181.243 110.894 182.381 112.305 183.372 112.867C184.658 113.589 186.07 114.017 187.573 114.127C187.871 114.149 188.128 114.294 188.304 114.534C188.475 114.77 188.542 115.079 188.495 115.393C188.469 115.548 188.416 115.704 188.336 115.844L181.053 128.688C180.787 129.156 180.305 129.433 179.817 129.403C179.235 129.367 177.154 129.155 174.875 127.863C173.612 127.147 172.261 125.831 170.837 124.435C169.233 122.868 167.577 121.247 165.879 120.285C163.946 119.189 162.775 118.958 162.224 118.917L157.213 127.754C156.915 128.267 156.299 128.474 155.838 128.213ZM166.937 118.408C168.833 119.483 170.652 121.257 172.255 122.825C173.597 124.135 174.864 125.379 175.932 125.985C177.473 126.859 178.874 127.158 179.641 127.26L185.99 116.062C184.695 115.831 183.459 115.385 182.309 114.741C181.025 114.013 179.791 112.477 178.475 110.856C177.019 109.04 175.505 107.168 173.845 106.226C171.901 105.124 170.73 104.893 170.19 104.858L163.342 116.934C164.208 117.116 165.391 117.531 166.937 118.408Z" fill="#1E293B"/>
<g clip-path="url(#clip0_5_8431)">
<path d="M177.06 118.464C176.712 118.909 174.736 119.16 173.373 118.095C172.01 117.03 171.775 115.052 172.123 114.607C172.892 113.622 174.621 113.688 175.984 114.753C177.348 115.818 177.829 117.479 177.06 118.464Z" fill="#D80027"/>
<path d="M177.06 118.464C176.291 119.448 174.562 119.383 173.199 118.317C171.836 117.252 171.354 115.591 172.123 114.606" fill="#0052B4"/>
<path d="M175.977 120.155L177 120.194L177.191 120.85L176.167 120.811L175.977 120.155Z" fill="black"/>
<path d="M174.27 120.09L175.294 120.129L175.484 120.785L174.461 120.746L174.27 120.09Z" fill="black"/>
<path d="M176.547 122.123L177.571 122.162L177.761 122.818L176.737 122.779L176.547 122.123Z" fill="black"/>
<path d="M174.841 122.058L175.864 122.096L176.055 122.752L175.031 122.714L174.841 122.058Z" fill="black"/>
<path d="M176.262 121.139L177.286 121.177L177.476 121.833L176.452 121.795L176.262 121.139Z" fill="black"/>
<path d="M174.556 121.074L175.58 121.113L175.77 121.769L174.746 121.73L174.556 121.074Z" fill="black"/>
<path d="M179.75 118.03L178.989 115.407L179.672 115.432L180.432 118.056L179.75 118.03Z" fill="black"/>
<path d="M178.251 116.352L177.965 115.368L178.648 115.394L178.933 116.377L178.251 116.352Z" fill="black"/>
<path d="M178.726 117.991L178.441 117.007L179.123 117.033L179.408 118.017L178.726 117.991Z" fill="black"/>
<path d="M180.298 116.429L180.013 115.445L180.695 115.471L180.98 116.455L180.298 116.429Z" fill="black"/>
<path d="M180.774 118.069L180.488 117.085L181.171 117.111L181.456 118.095L180.774 118.069Z" fill="black"/>
<path d="M168.411 115.003L169.172 117.627L168.49 117.601L167.729 114.977L168.411 115.003Z" fill="black"/>
<path d="M169.911 116.682L170.196 117.666L169.513 117.64L169.228 116.656L169.911 116.682Z" fill="black"/>
<path d="M169.435 115.042L169.72 116.026L169.038 116L168.753 115.016L169.435 115.042Z" fill="black"/>
<path d="M170.459 115.08L171.219 117.704L170.537 117.678L169.776 115.054L170.459 115.08Z" fill="black"/>
<path d="M174.341 111.012L171.611 110.908L171.421 110.252L174.151 110.356L174.341 111.012Z" fill="black"/>
<path d="M174.626 111.995L171.896 111.892L171.706 111.236L174.436 111.339L174.626 111.995Z" fill="black"/>
<path d="M174.912 112.979L172.182 112.876L171.992 112.22L174.722 112.324L174.912 112.979Z" fill="black"/>
</g>
<defs>
<clipPath id="clip0_5_8431">
<rect width="18.0117" height="13.006" fill="white" transform="translate(171.499 105.866) rotate(38.0029)"/>
</clipPath>
</defs>
</svg>
