<svg width="229" height="230" viewBox="0 0 229 230" fill="none" xmlns="http://www.w3.org/2000/svg">
<mask id="mask0_5_10718" style="mask-type:alpha" maskUnits="userSpaceOnUse" x="170" y="109" width="17" height="20">
<path d="M186.411 114.495L179.115 110.026C178.641 109.735 177.763 110.305 177.155 111.297L171.101 121.182C170.493 122.175 170.384 123.215 170.858 123.505L178.154 127.974C178.628 128.265 179.506 127.695 180.114 126.703L186.168 116.818C186.776 115.825 186.885 114.785 186.411 114.495Z" fill="white"/>
</mask>
<g mask="url(#mask0_5_10718)">
<path d="M186.411 114.495L179.115 110.026C178.641 109.735 177.763 110.305 177.155 111.297L171.101 121.182C170.493 122.175 170.384 123.215 170.858 123.505L178.154 127.974C178.628 128.265 179.506 127.695 180.114 126.703L186.168 116.818C186.776 115.825 186.885 114.785 186.411 114.495Z" fill="white"/>
</g>
<mask id="mask1_5_10718" style="mask-type:alpha" maskUnits="userSpaceOnUse" x="162" y="103" width="17" height="20">
<path d="M178.398 108.495L171.102 104.026C170.628 103.735 169.751 104.305 169.143 105.297L163.088 115.182C162.48 116.175 162.371 117.215 162.846 117.505L170.142 121.974C170.616 122.265 171.493 121.695 172.101 120.703L178.156 110.818C178.764 109.825 178.872 108.785 178.398 108.495Z" fill="white"/>
</mask>
<g mask="url(#mask1_5_10718)">
<path d="M178.398 108.495L171.102 104.026C170.628 103.735 169.751 104.305 169.143 105.297L163.088 115.182C162.48 116.175 162.371 117.215 162.846 117.505L170.142 121.974C170.616 122.265 171.493 121.695 172.101 120.703L178.156 110.818C178.764 109.825 178.872 108.785 178.398 108.495Z" fill="white"/>
</g>
<path d="M155.838 128.213C155.377 127.952 155.239 127.316 155.531 126.801L168.679 103.614C168.962 103.116 169.468 102.785 169.99 102.755C170.856 102.705 172.408 102.935 174.907 104.352C176.856 105.457 178.547 107.554 180.043 109.408C181.243 110.894 182.381 112.305 183.371 112.867C184.658 113.589 186.07 114.017 187.572 114.127C187.871 114.149 188.128 114.294 188.304 114.534C188.475 114.77 188.542 115.079 188.495 115.393C188.469 115.548 188.416 115.704 188.336 115.844L181.053 128.688C180.787 129.156 180.305 129.433 179.817 129.403C179.235 129.367 177.154 129.155 174.875 127.863C173.612 127.147 172.261 125.831 170.837 124.435C169.233 122.868 167.577 121.247 165.879 120.285C163.946 119.189 162.775 118.958 162.224 118.917L157.213 127.754C156.915 128.267 156.299 128.474 155.838 128.213ZM166.937 118.408C168.833 119.483 170.652 121.257 172.255 122.825C173.596 124.135 174.864 125.379 175.932 125.985C177.472 126.859 178.874 127.158 179.64 127.26L185.99 116.062C184.695 115.831 183.459 115.385 182.309 114.741C181.025 114.013 179.791 112.477 178.475 110.856C177.019 109.04 175.505 107.168 173.845 106.226C171.901 105.124 170.73 104.893 170.19 104.858L163.342 116.934C164.208 117.116 165.391 117.531 166.937 118.408Z" fill="#1E293B"/>
<g clip-path="url(#clip0_5_10718)">
<path d="M177.06 118.464C176.712 118.909 174.736 119.16 173.373 118.095C172.01 117.03 171.775 115.052 172.123 114.607C172.892 113.622 174.621 113.688 175.984 114.753C177.347 115.818 177.829 117.479 177.06 118.464Z" fill="#D80027"/>
<path d="M177.06 118.464C176.291 119.448 174.562 119.383 173.199 118.317C171.836 117.252 171.354 115.591 172.123 114.606" fill="#0052B4"/>
<path d="M175.977 120.155L177 120.194L177.19 120.85L176.167 120.811L175.977 120.155Z" fill="black"/>
<path d="M174.27 120.09L175.294 120.129L175.484 120.785L174.46 120.746L174.27 120.09Z" fill="black"/>
<path d="M176.547 122.123L177.571 122.162L177.761 122.818L176.737 122.779L176.547 122.123Z" fill="black"/>
<path d="M174.841 122.058L175.864 122.096L176.054 122.752L175.031 122.714L174.841 122.058Z" fill="black"/>
<path d="M176.262 121.139L177.285 121.177L177.475 121.833L176.452 121.795L176.262 121.139Z" fill="black"/>
<path d="M174.556 121.074L175.579 121.113L175.769 121.769L174.746 121.73L174.556 121.074Z" fill="black"/>
<path d="M179.75 118.03L178.989 115.407L179.672 115.432L180.432 118.056L179.75 118.03Z" fill="black"/>
<path d="M178.25 116.352L177.965 115.368L178.648 115.394L178.933 116.377L178.25 116.352Z" fill="black"/>
<path d="M178.726 117.991L178.44 117.007L179.123 117.033L179.408 118.017L178.726 117.991Z" fill="black"/>
<path d="M180.298 116.429L180.012 115.445L180.695 115.471L180.98 116.455L180.298 116.429Z" fill="black"/>
<path d="M180.773 118.069L180.488 117.085L181.171 117.111L181.456 118.095L180.773 118.069Z" fill="black"/>
<path d="M168.411 115.003L169.172 117.627L168.489 117.601L167.729 114.977L168.411 115.003Z" fill="black"/>
<path d="M169.91 116.682L170.196 117.666L169.513 117.64L169.228 116.656L169.91 116.682Z" fill="black"/>
<path d="M169.435 115.042L169.72 116.026L169.038 116L168.752 115.016L169.435 115.042Z" fill="black"/>
<path d="M170.459 115.08L171.219 117.704L170.537 117.678L169.776 115.054L170.459 115.08Z" fill="black"/>
<path d="M174.341 111.012L171.611 110.908L171.421 110.252L174.151 110.356L174.341 111.012Z" fill="black"/>
<path d="M174.626 111.995L171.896 111.892L171.706 111.236L174.436 111.339L174.626 111.995Z" fill="black"/>
<path d="M174.912 112.979L172.182 112.876L171.992 112.22L174.722 112.324L174.912 112.979Z" fill="black"/>
</g>
<mask id="mask2_5_10718" style="mask-type:alpha" maskUnits="userSpaceOnUse" x="170" y="109" width="17" height="20">
<path d="M186.411 114.495L179.115 110.026C178.641 109.735 177.763 110.305 177.155 111.297L171.101 121.182C170.493 122.175 170.384 123.215 170.858 123.505L178.154 127.974C178.628 128.265 179.506 127.695 180.114 126.703L186.168 116.818C186.776 115.825 186.885 114.785 186.411 114.495Z" fill="white"/>
</mask>
<g mask="url(#mask2_5_10718)">
<path d="M186.411 114.495L179.115 110.026C178.641 109.735 177.763 110.305 177.155 111.297L171.101 121.182C170.493 122.175 170.384 123.215 170.858 123.505L178.154 127.974C178.628 128.265 179.506 127.695 180.114 126.703L186.168 116.818C186.776 115.825 186.885 114.785 186.411 114.495Z" fill="white"/>
</g>
<mask id="mask3_5_10718" style="mask-type:alpha" maskUnits="userSpaceOnUse" x="162" y="103" width="17" height="20">
<path d="M178.398 108.495L171.102 104.026C170.628 103.735 169.751 104.305 169.143 105.297L163.088 115.182C162.48 116.175 162.371 117.215 162.846 117.505L170.142 121.974C170.616 122.265 171.493 121.695 172.101 120.703L178.156 110.818C178.764 109.825 178.872 108.785 178.398 108.495Z" fill="white"/>
</mask>
<g mask="url(#mask3_5_10718)">
<path d="M178.398 108.495L171.102 104.026C170.628 103.735 169.751 104.305 169.143 105.297L163.088 115.182C162.48 116.175 162.371 117.215 162.846 117.505L170.142 121.974C170.616 122.265 171.493 121.695 172.101 120.703L178.156 110.818C178.764 109.825 178.872 108.785 178.398 108.495Z" fill="white"/>
</g>
<path d="M155.838 128.213C155.377 127.952 155.239 127.316 155.531 126.801L168.679 103.614C168.962 103.116 169.468 102.785 169.99 102.755C170.856 102.705 172.408 102.935 174.907 104.352C176.856 105.457 178.547 107.554 180.043 109.408C181.243 110.894 182.381 112.305 183.371 112.867C184.658 113.589 186.07 114.017 187.572 114.127C187.871 114.149 188.128 114.294 188.304 114.534C188.475 114.77 188.542 115.079 188.495 115.393C188.469 115.548 188.416 115.704 188.336 115.844L181.053 128.688C180.787 129.156 180.305 129.433 179.817 129.403C179.235 129.367 177.154 129.155 174.875 127.863C173.612 127.147 172.261 125.831 170.837 124.435C169.233 122.868 167.577 121.247 165.879 120.285C163.946 119.189 162.775 118.958 162.224 118.917L157.213 127.754C156.915 128.267 156.299 128.474 155.838 128.213ZM166.937 118.408C168.833 119.483 170.652 121.257 172.255 122.825C173.596 124.135 174.864 125.379 175.932 125.985C177.472 126.859 178.874 127.158 179.64 127.26L185.99 116.062C184.695 115.831 183.459 115.385 182.309 114.741C181.025 114.013 179.791 112.477 178.475 110.856C177.019 109.04 175.505 107.168 173.845 106.226C171.901 105.124 170.73 104.893 170.19 104.858L163.342 116.934C164.208 117.116 165.391 117.531 166.937 118.408Z" fill="#1E293B"/>
<path d="M175 120.5C177.209 120.5 179 118.709 179 116.5C179 114.291 177.209 112.5 175 112.5C172.791 112.5 171 114.291 171 116.5C171 118.709 172.791 120.5 175 120.5Z" fill="#D80027"/>
<mask id="mask4_5_10718" style="mask-type:alpha" maskUnits="userSpaceOnUse" x="170" y="109" width="17" height="20">
<path d="M186.411 114.495L179.115 110.026C178.641 109.735 177.763 110.305 177.155 111.297L171.101 121.182C170.493 122.175 170.384 123.215 170.858 123.505L178.154 127.974C178.628 128.265 179.506 127.695 180.114 126.703L186.168 116.818C186.776 115.825 186.885 114.785 186.411 114.495Z" fill="white"/>
</mask>
<g mask="url(#mask4_5_10718)">
<path d="M186.411 114.495L179.115 110.026C178.641 109.735 177.763 110.305 177.155 111.297L171.101 121.182C170.493 122.175 170.384 123.215 170.858 123.505L178.154 127.974C178.628 128.265 179.506 127.695 180.114 126.703L186.168 116.818C186.776 115.825 186.885 114.785 186.411 114.495Z" fill="white"/>
</g>
<mask id="mask5_5_10718" style="mask-type:alpha" maskUnits="userSpaceOnUse" x="162" y="103" width="17" height="20">
<path d="M178.398 108.495L171.102 104.026C170.628 103.735 169.751 104.305 169.143 105.297L163.088 115.182C162.48 116.175 162.371 117.215 162.846 117.505L170.142 121.974C170.616 122.265 171.493 121.695 172.101 120.703L178.156 110.818C178.764 109.825 178.872 108.785 178.398 108.495Z" fill="white"/>
</mask>
<g mask="url(#mask5_5_10718)">
<path d="M178.398 108.495L171.102 104.026C170.628 103.735 169.751 104.305 169.143 105.297L163.088 115.182C162.48 116.175 162.371 117.215 162.846 117.505L170.142 121.974C170.616 122.265 171.493 121.695 172.101 120.703L178.156 110.818C178.764 109.825 178.872 108.785 178.398 108.495Z" fill="white"/>
</g>
<mask id="mask6_5_10718" style="mask-type:alpha" maskUnits="userSpaceOnUse" x="161" y="104" width="26" height="24">
<path d="M186.045 114.209L171.617 104.627C170.68 104.005 169.398 104.286 168.754 105.255L162.343 114.908C161.699 115.878 161.937 117.168 162.875 117.791L177.303 127.373C178.24 127.995 179.522 127.714 180.166 126.745L186.577 117.092C187.22 116.122 186.982 114.832 186.045 114.209Z" fill="white"/>
</mask>
<g mask="url(#mask6_5_10718)">
<path d="M186.045 114.209L171.617 104.627C170.68 104.005 169.398 104.286 168.754 105.255L162.343 114.908C161.699 115.878 161.937 117.168 162.875 117.791L177.303 127.373C178.24 127.995 179.522 127.714 180.166 126.745L186.577 117.092C187.22 116.122 186.982 114.832 186.045 114.209Z" fill="white"/>
<path fill-rule="evenodd" clip-rule="evenodd" d="M169.92 103.5L177.558 108.573L173.478 114.716L165.84 109.643L169.92 103.5Z" fill="#444379"/>
<path fill-rule="evenodd" clip-rule="evenodd" d="M170.186 104.941L169.603 105.819L170.451 106.383L171.034 105.505L170.186 104.941ZM171.883 106.069L171.3 106.946L172.149 107.51L172.732 106.632L171.883 106.069ZM173.58 107.196L172.998 108.074L173.846 108.637L174.429 107.76L173.58 107.196ZM175.278 108.323L174.695 109.201L175.544 109.765L176.126 108.887L175.278 108.323ZM173.846 108.637L173.263 109.515L174.112 110.078L174.695 109.201L173.846 108.637ZM172.149 107.51L171.566 108.387L172.415 108.951L172.998 108.074L172.149 107.51ZM170.451 106.383L169.869 107.26L170.717 107.824L171.3 106.946L170.451 106.383ZM169.02 106.697L168.437 107.574L169.286 108.138L169.869 107.26L169.02 106.697ZM170.717 107.824L170.134 108.701L170.983 109.265L171.566 108.387L170.717 107.824ZM172.415 108.951L171.832 109.829L172.681 110.392L173.263 109.515L172.415 108.951ZM174.112 110.078L173.529 110.956L174.378 111.52L174.961 110.642L174.112 110.078ZM167.854 108.452L167.271 109.329L168.12 109.893L168.703 109.015L167.854 108.452ZM169.552 109.579L168.969 110.456L169.818 111.02L170.4 110.143L169.552 109.579ZM171.249 110.706L170.666 111.584L171.515 112.147L172.098 111.27L171.249 110.706ZM172.946 111.834L172.364 112.711L173.212 113.275L173.795 112.397L172.946 111.834ZM172.681 110.392L172.098 111.27L172.946 111.834L173.529 110.956L172.681 110.392ZM170.983 109.265L170.4 110.143L171.249 110.706L171.832 109.829L170.983 109.265ZM169.286 108.138L168.703 109.015L169.552 109.579L170.134 108.701L169.286 108.138Z" fill="#A7B6E7"/>
<path fill-rule="evenodd" clip-rule="evenodd" d="M176.392 110.328L175.81 111.206L185.994 117.97L186.577 117.092L176.392 110.328ZM175.227 112.083L174.644 112.961L184.828 119.725L185.411 118.847L175.227 112.083ZM174.061 113.839L173.478 114.716L183.663 121.48L184.245 120.602L174.061 113.839ZM165.257 110.521L164.674 111.398L182.497 123.235L183.08 122.358L165.257 110.521ZM164.092 112.276L163.509 113.153L181.331 124.99L181.914 124.113L164.092 112.276ZM162.926 114.031L162.343 114.909L180.166 126.745L180.749 125.868L162.926 114.031ZM161.76 115.786L161.177 116.664L179 128.5L179.583 127.623L161.76 115.786Z" fill="#ED4C49"/>
</g>
<path d="M155.838 128.213C155.377 127.952 155.239 127.316 155.531 126.801L168.68 103.614C168.962 103.116 169.468 102.785 169.99 102.755C170.857 102.705 172.409 102.935 174.908 104.352C176.856 105.457 178.547 107.554 180.044 109.408C181.244 110.894 182.382 112.305 183.372 112.867C184.658 113.589 186.07 114.017 187.573 114.127C187.872 114.149 188.128 114.294 188.304 114.534C188.475 114.77 188.542 115.079 188.495 115.393C188.47 115.548 188.416 115.704 188.336 115.844L181.053 128.688C180.788 129.156 180.306 129.433 179.817 129.403C179.235 129.367 177.154 129.155 174.875 127.863C173.613 127.147 172.261 125.831 170.837 124.435C169.233 122.868 167.577 121.247 165.88 120.285C163.946 119.189 162.776 118.958 162.225 118.917L157.213 127.754C156.916 128.267 156.299 128.474 155.838 128.213ZM166.937 118.408C168.833 119.483 170.652 121.257 172.256 122.825C173.597 124.135 174.864 125.379 175.933 125.985C177.473 126.859 178.874 127.158 179.641 127.26L185.99 116.062C184.695 115.831 183.46 115.385 182.309 114.741C181.025 114.013 179.792 112.477 178.475 110.856C177.019 109.04 175.505 107.168 173.845 106.226C171.901 105.124 170.73 104.893 170.19 104.858L163.342 116.934C164.208 117.116 165.392 117.531 166.937 118.408Z" fill="#1E293B"/>
<defs>
<clipPath id="clip0_5_10718">
<rect width="18.0117" height="13.006" fill="white" transform="translate(171.499 105.866) rotate(38.0029)"/>
</clipPath>
</defs>
</svg>
