<svg width="229" height="230" viewBox="0 0 229 230" fill="none" xmlns="http://www.w3.org/2000/svg">
<path d="M157.359 127.61C157.144 127.964 157.256 128.425 157.61 128.641C157.964 128.856 158.425 128.744 158.641 128.39L157.359 127.61ZM164.359 116.11L157.359 127.61L158.641 128.39L165.641 116.89L164.359 116.11Z" fill="black"/>
<path fill-rule="evenodd" clip-rule="evenodd" d="M163.721 104.722C168.306 100.137 175.798 100.508 179.931 105.435C183.858 110.117 183.197 117.068 178.54 120.952C176.565 122.601 174.073 123.503 171.5 123.499C165.425 123.499 160.5 118.574 160.5 112.5C160.499 111.055 160.782 109.624 161.336 108.289C161.889 106.954 162.7 105.742 163.723 104.722" fill="#3C85F3"/>
<path fill-rule="evenodd" clip-rule="evenodd" d="M171.499 102.618C166.042 102.618 161.618 107.042 161.618 112.5C161.618 117.957 166.042 122.381 171.499 122.381C176.957 122.381 181.38 117.957 181.38 112.5C181.38 107.042 176.956 102.618 171.499 102.618Z" fill="#33AEFF"/>
<path fill-rule="evenodd" clip-rule="evenodd" d="M176.637 106.133C176.014 106.133 175.404 106.318 174.885 106.664C174.367 107.011 173.962 107.503 173.724 108.08C173.485 108.656 173.422 109.29 173.544 109.902C173.666 110.514 173.966 111.076 174.407 111.517C174.849 111.958 175.41 112.258 176.022 112.38C176.634 112.502 177.268 112.439 177.845 112.2C178.421 111.962 178.913 111.557 179.26 111.039C179.606 110.52 179.791 109.91 179.791 109.286C179.791 108.872 179.71 108.462 179.551 108.079C179.393 107.697 179.16 107.349 178.868 107.056C178.575 106.764 178.227 106.531 177.844 106.373C177.462 106.214 177.052 106.133 176.637 106.133Z" fill="#59BDFF"/>
<path fill-rule="evenodd" clip-rule="evenodd" d="M169.115 102.91C165.536 107.934 166.693 121.631 176.252 121.165C172.831 123.04 168.474 122.778 165.262 120.164C161.028 116.721 160.39 110.496 163.834 106.263C165.183 104.601 167.037 103.424 169.115 102.91Z" fill="#2E9EE8"/>
<path d="M169.1 104.043C169.157 103.551 169.157 103.185 169.119 102.909H169.118C170.489 102.57 171.916 102.527 173.305 102.783C172.735 103.567 172.854 104.011 172.942 104.338C173.053 104.749 173.113 104.973 171.676 105.452C171.502 105.91 171.105 106.035 170.753 106.147C170.49 106.23 170.253 106.306 170.152 106.504C169.399 107.988 168.986 106.36 168.986 105.999C168.986 105.155 169.001 104.913 169.1 104.043Z" fill="#9CE657"/>
<path d="M173.326 107.414C173.208 107.463 173.1 107.507 173.031 107.48C173.015 107.473 172.995 107.455 172.972 107.432C172.92 107.384 172.85 107.318 172.768 107.32C172.38 107.32 172.688 107.592 172.752 107.648C172.759 107.655 172.763 107.658 172.763 107.659C172.623 108.072 173.437 108.272 173.487 108.031C173.773 107.936 173.831 107.848 173.879 107.775C173.9 107.743 173.92 107.714 173.956 107.689C173.877 107.187 173.578 107.311 173.326 107.414Z" fill="#9CE657"/>
<path d="M179.954 107.442C179.964 107.438 179.973 107.433 179.983 107.429C180.87 108.916 181.352 110.61 181.38 112.341C181.276 112.326 181.171 112.317 181.066 112.312C180.806 112.3 180.572 112.006 180.401 111.789C180.204 111.54 180.088 111.393 180.103 111.889C180.126 112.609 179.551 111.773 179.424 111.589C179.414 111.574 179.407 111.564 179.403 111.558C178.739 110.655 177.802 110.554 176.849 111.03C176.65 111.13 176.537 111.349 176.419 111.576C176.236 111.928 176.042 112.302 175.499 112.287C174.765 112.267 174.587 111.772 174.954 111.146C175.135 110.837 175.515 110.593 176.249 110.65C176.546 110.673 176.098 110.052 175.626 109.838C175.585 109.819 175.722 109.752 175.936 109.648C176.31 109.465 176.918 109.167 177.201 108.816C177.299 108.694 177.491 108.701 177.708 108.709C177.992 108.72 178.318 108.731 178.532 108.458C178.664 108.288 178.706 108.344 178.754 108.407C178.834 108.513 178.929 108.637 179.484 107.748C179.555 107.634 179.764 107.533 179.954 107.442Z" fill="#9CE657"/>
<path d="M179.456 106.982C179.251 106.961 179.271 106.74 179.338 106.482C179.472 106.656 179.599 106.833 179.719 107.013C179.641 107.002 179.553 106.992 179.456 106.982Z" fill="#9CE657"/>
<path d="M178.111 105.201C178.115 105.189 178.118 105.178 178.122 105.166L178.123 105.167C178.413 105.429 178.688 105.708 178.945 106.003C178.817 106.366 178.745 106.919 178.927 107.152C179.085 107.351 178.027 109.12 177.958 107.694C177.947 107.471 177.787 107.525 177.612 107.585C177.401 107.656 177.168 107.735 177.15 107.345C177.133 106.99 177.27 106.806 177.457 106.554C177.658 106.282 177.919 105.931 178.111 105.201L178.111 105.201Z" fill="#9CE657"/>
<path d="M177.183 112.208C177.346 112.186 177.512 112.164 177.679 112.138L177.68 112.139C177.858 112.111 178.029 112.255 178.226 112.423C178.363 112.539 178.513 112.667 178.687 112.755C179.489 113.162 179.537 113.141 179.652 113.09C179.745 113.05 179.881 112.99 180.487 113.118C180.884 113.202 181.157 113.266 181.347 113.32C181.184 115.305 180.423 117.193 179.164 118.735C178.928 119.025 178.675 119.301 178.408 119.562C178.381 119.512 178.349 119.464 178.312 119.42C177.88 118.897 177.843 118.528 177.817 118.27C177.794 118.04 177.78 117.899 177.501 117.82C176.739 117.602 176.273 117.68 175.893 117.744C175.306 117.842 174.92 117.906 173.956 116.806C173.007 115.722 174.323 113.571 175.106 112.888C175.646 112.417 176.382 112.317 177.183 112.208Z" fill="#9CE657"/>
<path d="M176.292 104.17C176.28 104.169 176.272 104.138 176.175 104.15C176.161 104.151 176.147 104.152 176.133 104.152C175.944 104.152 175.776 104.262 175.812 104.432C175.896 104.813 176.132 104.8 176.259 104.792C176.288 104.791 176.312 104.789 176.326 104.794C176.517 104.849 176.446 104.951 176.368 105.062C176.312 105.143 176.252 105.228 176.287 105.305C176.414 105.588 176.52 105.552 176.682 105.4C176.758 105.328 176.756 105.217 176.754 105.104C176.752 105.002 176.75 104.899 176.804 104.821C176.917 104.66 176.93 104.754 176.947 104.883C176.967 105.025 176.992 105.21 177.162 105.144C177.549 104.993 177.261 104.804 177.223 104.779C177.22 104.777 177.219 104.776 177.219 104.776C177.174 104.609 177.062 104.554 176.984 104.516C176.91 104.48 176.866 104.458 176.931 104.371C176.932 104.371 176.939 104.369 176.953 104.366C176.977 104.361 177.02 104.352 177.072 104.34C176.915 104.232 176.755 104.13 176.593 104.032C176.549 104.064 176.509 104.052 176.474 104.042C176.445 104.033 176.42 104.025 176.4 104.049C176.316 104.148 176.302 104.171 176.292 104.17Z" fill="#9CE657"/>
<path d="M175.536 108.049C175.934 107.553 175.313 107.652 175.26 107.739C175.258 107.741 175.244 107.748 175.223 107.759C175.12 107.808 174.853 107.938 175.029 108.038C175.116 108.088 175.057 108.172 175.004 108.247C174.949 108.324 174.901 108.392 175.029 108.403C175.586 108.45 175.556 108.284 175.532 108.157C175.524 108.113 175.517 108.073 175.536 108.049Z" fill="#9CE657"/>
<path d="M176.207 107.38C176.222 107.271 176.234 107.179 176.118 107.099C176.082 107.073 176.061 107.053 176.045 107.037C176.02 107.011 176.005 106.997 175.96 106.994C175.378 106.955 175.569 107.288 175.648 107.425C175.663 107.452 175.675 107.472 175.675 107.479C175.675 107.619 175.807 107.725 175.915 107.81C176.035 107.905 176.124 107.976 175.962 108.043C175.884 108.075 175.834 108.246 175.798 108.372C175.975 108.613 175.81 108.709 175.813 108.713C175.814 108.716 175.901 108.673 176.255 108.602C176.256 108.599 176.694 108.363 176.713 108.356C176.73 108.293 176.696 108.108 176.634 108.07C176.152 107.777 176.183 107.556 176.207 107.38Z" fill="#9CE657"/>
<path d="M166.833 114.392C166.826 114.393 166.291 114.277 166.276 114.271C165.726 114.061 165.276 113.917 164.905 113.826C164.942 113.719 164.976 113.599 165.009 113.46C165.189 112.707 166.906 111.854 167.67 111.641C168.944 111.288 168.318 109.585 167.684 109.531C167.67 109.391 167.707 109.206 167.744 109.021C167.849 108.496 167.953 107.976 166.871 108.512C166.835 108.529 166.763 108.421 166.665 108.274C166.324 107.762 165.675 106.785 165.207 109.137C164.857 110.901 161.332 107.185 165.25 106.279C165.276 106.273 165.336 106.252 165.419 106.224C165.93 106.052 167.295 105.592 166.809 106.394C166.661 106.403 165.596 106.633 166.463 107.046C166.523 107.075 166.609 107.161 166.709 107.263C167.01 107.566 167.441 108.002 167.715 107.406C167.895 107.015 167.732 106.939 167.733 106.936C167.734 106.935 167.838 106.98 168.299 106.952C168.584 106.935 168.456 106.656 168.293 106.3C168.167 106.024 168.02 105.702 168.028 105.422C168.036 105.143 167.339 104.497 167.082 104.343C166.833 104.301 166.877 104.238 166.937 104.151C167.002 104.057 167.087 103.934 166.846 103.78C165.687 104.398 164.663 105.243 163.834 106.263C160.39 110.496 161.028 116.721 165.263 120.163C165.82 120.617 166.426 121.009 167.069 121.333C167.209 121.102 167.369 120.888 167.503 120.764C167.827 120.464 167.916 120.216 167.99 120.014C168.065 119.805 168.124 119.643 168.403 119.522C169.486 119.051 169.499 118.304 169.509 117.78C169.514 117.507 169.518 117.295 169.67 117.212C170.536 116.737 169.735 115.939 169.093 115.913C168.103 115.873 167.789 115.35 167.537 114.927C167.351 114.617 167.198 114.361 166.833 114.392Z" fill="#9CE657"/>
</svg>
