<svg width="229" height="230" viewBox="0 0 229 230" fill="none" xmlns="http://www.w3.org/2000/svg">
<line x1="169.097" y1="112.529" x2="158.096" y2="128.529" stroke="black" stroke-width="2"/>
<path d="M176.01 101.247C176.198 101.094 176.472 101.271 176.41 101.505L174.778 107.66C174.584 108.393 174.883 109.167 175.52 109.578L180.869 113.032C181.073 113.164 180.989 113.479 180.748 113.492L174.39 113.842C173.633 113.883 172.989 114.408 172.794 115.141L171.163 121.295C171.101 121.53 170.775 121.547 170.688 121.322L168.39 115.383C168.117 114.676 167.419 114.226 166.662 114.267L160.304 114.617C160.062 114.631 159.945 114.327 160.133 114.174L165.07 110.154C165.658 109.675 165.871 108.872 165.598 108.165L163.3 102.227C163.213 102.001 163.466 101.795 163.669 101.926L169.018 105.38C169.655 105.791 170.484 105.746 171.072 105.267L176.01 101.247Z" fill="#FFD952" stroke="black" stroke-width="1.5"/>
</svg>
