<svg width="229" height="230" viewBox="0 0 229 230" fill="none" xmlns="http://www.w3.org/2000/svg">
<path d="M182.979 113.224C178.154 119.725 170.555 122.257 166.004 118.879C161.452 115.501 161.675 107.494 166.501 100.993C171.326 94.4923 180.974 92.2649 184.058 94.5537C186.962 96.7086 187.801 106.727 182.979 113.224Z" fill="#3ACE5A"/>
<path d="M184.058 94.5537L182.844 96.1898C183.694 100.283 183.049 106.382 179.75 110.827C176.142 115.688 170.98 118.331 166.703 117.937L166.004 118.879C170.555 122.257 178.154 119.725 182.979 113.224C187.801 106.727 186.962 96.7086 184.058 94.5537Z" fill="#3CE55C"/>
<path d="M182.979 113.224L182.194 112.641C179.891 115.745 176.931 117.88 174.078 118.83C172.654 119.306 171.258 119.481 169.99 119.361C168.718 119.238 167.571 118.825 166.586 118.094C165.601 117.363 164.873 116.385 164.388 115.203C163.662 113.435 163.505 111.195 163.979 108.809C164.454 106.423 165.555 103.899 167.285 101.576C169.538 98.5321 172.993 96.4353 176.229 95.4116C177.843 94.8935 179.399 94.6492 180.687 94.6613C181.33 94.664 181.903 94.7364 182.378 94.8581C182.854 94.9798 183.225 95.1519 183.48 95.3412C183.704 95.5072 183.963 95.7971 184.205 96.2083C184.629 96.9244 184.997 97.9946 185.214 99.2687C185.542 101.18 185.538 103.538 185.068 105.909C184.602 108.283 183.675 110.655 182.195 112.648L182.976 113.228L183.761 113.81C186.331 110.339 187.355 106.024 187.39 102.272C187.405 100.39 187.172 98.6472 186.725 97.1836C186.501 96.4518 186.225 95.7907 185.881 95.2129C185.541 94.6381 185.136 94.1427 184.638 93.7729C184.124 93.3914 183.517 93.1354 182.855 92.9609C181.694 92.6647 180.348 92.6334 178.887 92.8146C176.699 93.0894 174.264 93.8618 171.936 95.1213C169.612 96.3838 167.398 98.1362 165.712 100.408C163.19 103.806 161.853 107.608 161.755 111.076C161.708 112.812 161.97 114.467 162.576 115.939C163.178 117.414 164.127 118.702 165.417 119.66C166.708 120.619 168.216 121.153 169.803 121.303C172.179 121.527 174.725 120.91 177.146 119.616C179.567 118.321 181.87 116.35 183.763 113.799L182.982 113.22L182.979 113.224Z" fill="#1E3D70"/>
<path d="M183.016 94.3191L157.536 128.648C157.149 129.169 157.185 129.858 157.617 130.178C158.049 130.499 158.718 130.334 159.105 129.813L184.585 95.484C184.972 94.9625 184.935 94.2738 184.504 93.9535C184.072 93.6332 183.406 93.793 183.016 94.3191Z" fill="#1E3D70"/>
<path d="M170.168 114.424L184.274 112.372L183.992 110.44L169.888 112.488" fill="#1E3D70"/>
<path d="M176.245 106.236L186.474 104.768L186.195 102.833L175.97 104.304" fill="#1E3D70"/>
<path d="M170.997 113.324L169.03 99.0614L167.092 99.3271L169.063 113.592" fill="#1E3D70"/>
<path d="M177.075 105.142L175.676 94.7879L173.738 95.0468L175.137 105.401" fill="#1E3D70"/>
</svg>
