<svg width="229" height="230" viewBox="0 0 229 230" fill="none" xmlns="http://www.w3.org/2000/svg">
<path d="M180 129.5L178.5 130L179.5 137H184.5L192 134.5L197 130.5V127.5L194.5 122L193.5 123.5L191.5 125.5L185 129L180 129.5Z" fill="#262626"/>
<path d="M185.5 111L187 107L194.5 106L198 107.5L197.5 112.5L189.5 120L177.5 125.5H173.5V125L176.5 119L180 118L187.5 115.5L189.5 111.5L185.5 111Z" fill="url(#paint0_linear_96_30868)"/>
<path d="M178.5 130L177 125.5L185 123L193 117.5L194.5 122.5L185.5 128.5L178.5 130Z" fill="#FD2121"/>
<path fill-rule="evenodd" clip-rule="evenodd" d="M157.252 129.825C160.612 126.75 163.955 123.563 167.315 120.45C168.417 119.382 169.537 118.35 170.657 117.319C171.777 116.288 172.915 115.275 174.017 114.207C175.4 112.894 176.765 111.544 178.077 110.157C178.123 110.104 178.179 110.062 178.24 110.033C178.302 110.004 178.369 109.989 178.436 109.989C178.503 109.989 178.57 110.004 178.632 110.033C178.693 110.062 178.749 110.104 178.795 110.157C178.89 110.259 178.943 110.397 178.943 110.541C178.943 110.685 178.89 110.823 178.795 110.925C176.677 113.569 174.455 116.175 172.092 118.613C171.077 119.663 170.045 120.675 168.977 121.65C167.91 122.625 166.842 123.525 165.74 124.519C163.185 126.713 160.49 128.794 157.952 130.875C157.893 130.927 157.824 130.966 157.75 130.989C157.677 131.012 157.599 131.02 157.523 131.011C157.447 131.002 157.373 130.978 157.305 130.938C157.238 130.899 157.178 130.846 157.13 130.782C157.082 130.718 157.046 130.644 157.024 130.565C157.002 130.486 156.995 130.403 157.003 130.322C157.011 130.24 157.034 130.16 157.071 130.088C157.108 130.016 157.158 129.952 157.217 129.9L157.252 129.825Z" fill="black"/>
<path fill-rule="evenodd" clip-rule="evenodd" d="M185.987 100.481L184.867 100.838C184.762 101.7 184.605 102.544 184.482 103.406C184.473 103.572 184.404 103.727 184.29 103.84C184.176 103.952 184.025 104.011 183.87 104.006C183.714 103.997 183.567 103.923 183.459 103.801C183.352 103.679 183.292 103.518 183.292 103.35C183.292 102.581 183.17 101.813 183.117 101.044H182.662C182.067 101.044 181.507 100.819 180.912 100.725C180.837 100.727 180.761 100.714 180.69 100.685C180.619 100.656 180.554 100.613 180.499 100.557C180.444 100.501 180.399 100.435 180.368 100.36C180.337 100.286 180.32 100.206 180.317 100.125C180.313 100.042 180.324 99.9592 180.349 99.881C180.375 99.8028 180.415 99.731 180.468 99.6697C180.52 99.6085 180.583 99.5592 180.653 99.5246C180.724 99.4901 180.8 99.4711 180.877 99.4688C181.472 99.3188 182.032 99.1688 182.627 99.075H183.03V97.9688C183.135 96.975 183.327 96.0938 183.467 95.0438C183.467 94.8995 183.521 94.7612 183.616 94.6593C183.711 94.5573 183.84 94.5 183.975 94.5C184.11 94.5 184.239 94.5573 184.334 94.6593C184.429 94.7612 184.482 94.8995 184.482 95.0438C184.64 96.0375 184.815 96.9188 184.902 98.0063V99.2438L185.795 99.4313C185.862 99.4262 185.929 99.4352 185.992 99.4579C186.055 99.4806 186.114 99.5165 186.164 99.5636C186.215 99.6106 186.256 99.6679 186.286 99.732C186.315 99.7962 186.333 99.866 186.337 99.9375C186.337 100.055 186.304 100.171 186.241 100.268C186.179 100.365 186.09 100.439 185.987 100.481Z" fill="black"/>
<path fill-rule="evenodd" clip-rule="evenodd" d="M172.303 109.538L170.938 109.763L170.623 111.3C170.599 111.448 170.527 111.582 170.419 111.679C170.312 111.776 170.176 111.829 170.036 111.829C169.896 111.829 169.76 111.776 169.653 111.679C169.546 111.582 169.474 111.448 169.45 111.3C169.45 110.794 169.328 110.306 169.275 109.8H169.135C168.558 109.688 168.015 109.5 167.385 109.369C167.309 109.366 167.235 109.348 167.165 109.315C167.096 109.281 167.034 109.234 166.982 109.174C166.93 109.115 166.889 109.046 166.862 108.97C166.835 108.894 166.823 108.813 166.825 108.731C166.811 108.629 166.821 108.525 166.853 108.428C166.885 108.331 166.939 108.244 167.01 108.174C167.08 108.104 167.165 108.053 167.258 108.026C167.351 107.999 167.449 107.997 167.543 108.019C168.138 108.019 168.698 107.794 169.293 107.738C169.888 107.681 169.293 107.531 169.293 107.419C169.415 106.706 169.625 106.088 169.8 105.394C169.822 105.265 169.886 105.148 169.98 105.064C170.075 104.98 170.194 104.934 170.316 104.934C170.439 104.934 170.558 104.98 170.652 105.064C170.746 105.148 170.81 105.265 170.833 105.394C170.938 106.088 171.095 106.744 171.165 107.456C171.174 107.606 171.174 107.756 171.165 107.906C171.585 108.038 172.005 108.206 172.443 108.375C172.556 108.417 172.653 108.5 172.717 108.609C172.78 108.718 172.807 108.847 172.793 108.975C172.795 109.046 172.784 109.118 172.761 109.185C172.737 109.252 172.702 109.313 172.656 109.365C172.611 109.417 172.556 109.46 172.495 109.489C172.435 109.519 172.369 109.535 172.303 109.538Z" fill="black"/>
<path fill-rule="evenodd" clip-rule="evenodd" d="M188.84 125.85C190.59 124.913 191.99 123.975 193.67 122.963C194.265 122.531 194.65 123.319 194.335 124.181C192.922 125.386 191.443 126.501 189.907 127.519C189.115 128.029 188.297 128.492 187.457 128.906C186.613 129.323 185.741 129.673 184.85 129.956C183.107 130.518 181.297 130.808 179.477 130.819C178.76 130.819 178.515 129.731 179.145 129.488C181.177 129.193 183.161 128.6 185.042 127.725C186.337 127.088 187.597 126.45 188.84 125.85Z" fill="black"/>
<path fill-rule="evenodd" clip-rule="evenodd" d="M172.95 125.157C173.021 125.009 173.143 124.897 173.29 124.845C173.437 124.792 173.598 124.803 173.737 124.875C174.44 125.163 175.204 125.234 175.942 125.082C177.184 124.829 178.402 124.459 179.582 123.975C182.529 122.905 185.367 121.516 188.052 119.832C190.739 118.242 193.163 116.189 195.227 113.757C195.507 113.438 195.787 113.082 196.05 112.725C196.283 112.379 196.493 112.015 196.68 111.638C196.836 111.346 196.965 111.038 197.065 110.719C197.168 110.396 197.244 110.063 197.292 109.725C197.45 108.338 197.065 107.532 196.33 107.119C194.632 106.546 192.827 106.436 191.08 106.8C190.572 106.8 190.065 106.95 189.575 107.044C188.805 107.213 188.07 107.419 187.3 107.644C187.232 107.677 187.158 107.694 187.083 107.693C187.008 107.693 186.934 107.676 186.866 107.642C186.798 107.609 186.738 107.56 186.689 107.5C186.64 107.439 186.603 107.368 186.582 107.292C186.561 107.215 186.555 107.134 186.565 107.055C186.575 106.975 186.601 106.899 186.641 106.831C186.681 106.764 186.733 106.706 186.796 106.662C186.858 106.617 186.929 106.588 187.002 106.575C187.79 106.313 188.542 106.069 189.312 105.863C189.843 105.715 190.381 105.596 190.922 105.507C192.916 104.988 195.001 105.027 196.977 105.619C197.735 105.959 198.357 106.573 198.735 107.355C199.112 108.136 199.221 109.035 199.042 109.894C199.007 110.349 198.936 110.801 198.832 111.244C198.717 111.683 198.565 112.11 198.377 112.519C198.202 112.913 197.992 113.269 197.782 113.644C197.572 114.019 197.082 114.638 196.715 115.107C195.863 116.102 194.945 117.029 193.967 117.882C194.247 118.875 194.545 119.757 194.912 120.788C195.353 121.916 195.861 123.012 196.435 124.069C197.08 124.915 197.665 125.811 198.185 126.75C198.41 127.345 198.459 128 198.325 128.625C197.742 130.965 196.346 132.978 194.422 134.25C191.722 135.956 188.777 137.172 185.707 137.85C184.35 138.223 182.96 138.443 181.56 138.507C180.789 138.55 180.026 138.32 179.39 137.85C178.891 137.342 178.539 136.691 178.375 135.975C178.195 135.112 178.084 134.234 178.042 133.35C177.942 132.241 177.778 131.139 177.552 130.05C177.319 128.966 176.997 127.906 176.59 126.882C176.538 126.724 176.538 126.552 176.59 126.394C176.433 126.412 176.274 126.412 176.117 126.394C175.144 126.559 174.146 126.416 173.247 125.982C173.108 125.912 172.999 125.787 172.943 125.633C172.888 125.48 172.89 125.309 172.95 125.157ZM177.64 126.319C178.354 128.541 178.938 130.807 179.39 133.107C179.471 133.91 179.605 134.705 179.792 135.488C179.909 135.883 180.12 136.238 180.405 136.519C180.702 136.782 181.315 136.688 181.98 136.519C183.053 136.371 184.113 136.127 185.147 135.788C187.983 135.096 190.703 133.945 193.215 132.375C194.789 131.423 195.98 129.88 196.557 128.044C196.645 127.67 196.595 127.274 196.417 126.938C196.067 126.15 195.455 125.438 195.105 124.688C194.947 124.35 193.862 121.632 193.705 121.144C193.425 120.3 193.215 119.438 193.005 118.575C191.731 119.664 190.385 120.654 188.98 121.538C186.129 123.179 183.118 124.481 180.002 125.419C179.285 125.644 178.41 125.944 177.5 126.15C177.556 126.197 177.603 126.254 177.64 126.319Z" fill="black"/>
<path fill-rule="evenodd" clip-rule="evenodd" d="M185.882 111.581C185.748 111.581 185.619 111.524 185.524 111.422C185.428 111.32 185.375 111.181 185.375 111.037C185.375 110.893 185.428 110.755 185.524 110.653C185.619 110.551 185.748 110.493 185.882 110.493C186.903 110.259 187.959 110.259 188.98 110.493C189.785 110.85 190.292 111.6 189.767 113.212C189.692 113.457 189.599 113.696 189.487 113.925C189.363 114.16 189.223 114.386 189.067 114.6C188.876 114.873 188.666 115.13 188.437 115.368C188.208 115.595 187.962 115.802 187.702 115.987C186.397 116.908 184.993 117.657 183.52 118.218C181.339 118.989 179.085 119.498 176.8 119.737C176.724 119.75 176.646 119.747 176.571 119.728C176.497 119.709 176.426 119.673 176.364 119.625C176.302 119.576 176.25 119.514 176.211 119.443C176.171 119.372 176.146 119.294 176.135 119.212C176.11 119.05 176.145 118.885 176.234 118.751C176.322 118.618 176.457 118.527 176.607 118.5C178.397 118.088 180.152 117.523 181.857 116.812C182.697 116.456 183.607 116.062 184.307 115.631C185.112 115.241 185.89 114.79 186.635 114.281L187.702 113.362L188.262 112.537C188.402 112.256 188.56 112.087 188.455 111.956C188.349 111.83 188.208 111.745 188.052 111.712C187.336 111.577 186.608 111.533 185.882 111.581Z" fill="black"/>
<defs>
<linearGradient id="paint0_linear_96_30868" x1="182.5" y1="106" x2="182.5" y2="125.5" gradientUnits="userSpaceOnUse">
<stop stop-color="#272727"/>
<stop offset="1" stop-color="#5A5A5A"/>
</linearGradient>
</defs>
</svg>
