<svg width="229" height="230" viewBox="0 0 229 230" fill="none" xmlns="http://www.w3.org/2000/svg">
<path d="M197.577 116.446L196.077 114.946L192.077 120.946L193.577 121.946H195.077L197.077 120.946L198.077 118.946L197.577 116.446Z" fill="#DE3535"/>
<path d="M165.577 108.946L171.077 101.946L175.577 102.446L188.577 104.946L198.077 108.446L196.077 113.446L186.577 127.446L183.577 125.946L165.577 108.946Z" fill="#FF5353"/>
<path d="M192.077 120.946L196.077 114.946C197.434 115.565 199.577 118.446 197.077 120.946C194.577 123.446 193.129 121.953 192.077 120.946Z" stroke="black"/>
<path d="M167.577 117.446L169.077 111.946L176.577 119.946L173.077 122.946L169.077 121.946L167.577 117.446Z" fill="#B70000"/>
<path fill-rule="evenodd" clip-rule="evenodd" d="M190.755 124.678C191.638 123.32 192.545 121.99 193.428 120.632C194.008 119.717 194.591 118.776 195.122 117.83C195.653 116.884 196.501 115.483 197.119 114.296C197.549 113.458 197.964 112.632 198.303 111.773C198.517 111.289 198.706 110.795 198.87 110.292C199.01 109.886 199.084 109.459 199.088 109.028C199.078 108.608 198.969 108.197 198.77 107.827C198.571 107.456 198.288 107.138 197.943 106.897C196.793 106.195 195.527 105.704 194.205 105.449C191.698 104.762 189.166 104.191 186.627 103.697C184.089 103.204 181.527 102.827 178.946 102.513L174.493 102.019C173.092 101.858 172.38 101.895 172.113 101.803C171.846 101.712 172.061 101.51 172.5 100.857C172.588 100.738 172.628 100.591 172.612 100.443C172.596 100.296 172.525 100.16 172.414 100.061C172.358 100.01 172.292 99.9715 172.22 99.9471C172.148 99.9227 172.071 99.9134 171.996 99.9196C171.92 99.9259 171.847 99.9477 171.78 99.9835C171.714 100.019 171.655 100.069 171.608 100.128C170.436 101.292 169.335 102.527 168.312 103.826C167.722 104.556 167.191 105.358 166.617 106.195C165.661 107.638 164.854 109.029 164.242 109.85C164.181 109.912 164.132 109.987 164.1 110.069C164.068 110.151 164.054 110.239 164.057 110.327C164.06 110.415 164.082 110.502 164.12 110.582C164.158 110.661 164.212 110.733 164.278 110.791C164.344 110.849 164.422 110.894 164.506 110.921C164.59 110.948 164.678 110.958 164.766 110.95C164.854 110.942 164.939 110.916 165.016 110.874C165.093 110.831 165.161 110.774 165.214 110.704C166.008 110.046 167.061 108.835 168.175 107.525C168.987 106.556 169.743 105.543 170.442 104.49C170.805 103.947 171.228 103.188 171.539 102.64C171.776 102.926 172.27 102.829 172.683 102.895L174.496 103.148L178.791 103.797C181.263 104.152 183.825 104.674 186.305 105.241C188.784 105.807 191.255 106.477 193.677 107.235C194.469 107.447 195.242 107.723 195.989 108.061C196.479 108.305 196.997 108.525 196.98 108.996C196.976 109.22 196.934 109.443 196.856 109.653C196.704 110.078 196.531 110.495 196.337 110.902C196.001 111.698 195.625 112.476 195.209 113.233C194.579 114.406 193.899 115.547 193.285 116.682L188.992 123.446C188.568 124.163 188.103 124.854 187.599 125.516C187.323 125.85 186.986 126.129 186.607 126.339L185.898 126.061L182.403 123.665C181.408 122.99 180.459 122.25 179.561 121.45C178.151 120.213 176.827 118.905 175.474 117.62C174.459 116.657 173.334 115.761 172.307 114.784C171.877 114.391 171.473 113.971 171.096 113.526C170.481 112.785 169.838 111.778 169.194 110.916C168.901 110.487 168.568 110.086 168.201 109.719C168.072 109.606 167.904 109.548 167.733 109.559C167.563 109.569 167.404 109.647 167.291 109.775C167.183 109.906 167.13 110.073 167.141 110.242C167.153 110.412 167.229 110.571 167.353 110.687C167.667 110.977 167.941 111.308 168.169 111.67C168.169 111.67 168.488 111.766 167.719 113.319L167.077 114.622C166.669 115.494 166.505 116.462 166.602 117.423C166.728 118.453 167.033 119.455 167.502 120.383C168.243 121.868 169.5 123.035 171.035 123.661C171.605 123.859 172.212 123.922 172.808 123.845C173.404 123.768 173.974 123.553 174.471 123.217C174.788 123.015 175.078 122.774 175.336 122.5C175.704 122.194 175.914 121.755 176.226 121.352C176.307 121.241 176.355 121.11 176.365 120.972L178.413 122.98C179.335 123.837 180.31 124.636 181.331 125.372L184.852 127.915C185.249 128.189 185.694 128.383 186.164 128.487C186.604 128.582 187.061 128.539 187.473 128.364C188.11 128.017 188.673 127.55 189.131 126.988C189.717 126.25 190.259 125.479 190.755 124.678ZM174.357 121.435C174.185 121.612 173.995 121.77 173.79 121.905C173.484 122.047 173.151 122.119 172.813 122.116C172.476 122.113 172.142 122.035 171.838 121.888C170.806 121.397 169.977 120.561 169.494 119.525C169.043 118.767 168.728 117.938 168.561 117.073C168.454 116.536 168.459 115.982 168.576 115.448L168.982 114.149C169.371 113.032 169.206 113.554 170.176 114.723C170.578 115.208 170.98 115.692 171.443 116.078C172.441 117.079 173.524 118.01 174.511 118.997C175.703 120.174 176.005 119.875 174.309 121.378L174.357 121.435Z" fill="black"/>
<path fill-rule="evenodd" clip-rule="evenodd" d="M202.751 115.231C202.806 115.281 202.871 115.319 202.941 115.343C203.011 115.367 203.085 115.376 203.159 115.371C203.233 115.366 203.305 115.346 203.371 115.313C203.437 115.279 203.495 115.233 203.543 115.176C203.783 114.976 204.707 114.619 205.161 114.243L205.279 114.386L206.642 116.865C206.908 117.269 207.217 117.641 207.565 117.977C207.725 118.118 207.922 118.211 208.132 118.246C208.343 118.28 208.558 118.254 208.753 118.17C209.253 117.955 209.727 117.684 210.164 117.361C211.236 116.527 212.258 115.631 213.225 114.677C213.398 115.159 213.65 115.608 213.97 116.008C214.099 116.121 214.267 116.179 214.438 116.168C214.608 116.157 214.767 116.08 214.88 115.951C214.935 115.888 214.977 115.815 215.003 115.735C215.029 115.655 215.039 115.571 215.032 115.487C215.025 115.403 215.001 115.321 214.962 115.246C214.922 115.172 214.869 115.106 214.803 115.052C214.611 114.591 214.482 114.107 214.422 113.612C214.392 113.452 214.323 113.303 214.219 113.178C214.115 113.053 213.982 112.957 213.831 112.899C213.611 112.847 213.382 112.862 213.171 112.94C212.677 113.2 212.203 113.497 211.754 113.827L208.577 115.765L206.869 113.476C206.762 113.348 206.568 112.883 206.381 112.629C206.247 112.42 206.058 112.252 205.835 112.143C205.612 112.083 205.379 112.073 205.153 112.115C204.927 112.156 204.713 112.249 204.528 112.385C203.849 113.014 203.248 113.723 202.738 114.496C202.654 114.6 202.609 114.73 202.611 114.865C202.613 115 202.663 115.129 202.751 115.231Z" fill="black"/>
<path fill-rule="evenodd" clip-rule="evenodd" d="M201.832 127.979C202.978 127.918 204.285 127.532 205.173 127.421C205.173 127.421 205.513 127.283 205.783 127.204L205.816 127.994L205.742 129.404C205.681 129.936 205.433 130.647 205.363 131.283C205.305 131.679 205.331 132.084 205.439 132.471C205.502 132.681 205.624 132.87 205.79 133.013C205.956 133.157 206.159 133.251 206.376 133.283C207.319 133.188 208.244 132.964 209.124 132.615C209.251 132.509 210.706 131.062 207.072 131.526L207.112 131.372C207.281 130.798 207.546 130.194 207.666 129.733L207.92 128.078C207.936 127.752 207.974 127.336 207.968 126.955C207.955 126.605 207.879 126.26 207.746 125.936C207.677 125.752 207.563 125.587 207.414 125.458C207.265 125.329 207.086 125.24 206.894 125.199C206.176 125.127 205.451 125.168 204.746 125.32C203.914 125.529 202.714 126.043 201.634 126.241C201.386 126.296 201.133 126.329 200.878 126.339C201.003 125.97 200.75 125.146 200.83 124.55C200.831 124.415 200.785 124.284 200.699 124.179C200.613 124.075 200.494 124.004 200.361 123.979C200.229 123.953 200.092 123.975 199.975 124.041C199.858 124.107 199.768 124.212 199.721 124.339C199.47 125.105 199.327 125.904 199.297 126.712C199.311 126.937 199.389 127.155 199.521 127.34C199.652 127.524 199.833 127.668 200.043 127.754C200.616 127.958 201.227 128.035 201.832 127.979Z" fill="black"/>
<path fill-rule="evenodd" clip-rule="evenodd" d="M194.699 139.748C195.1 139.005 195.441 138.23 195.721 137.433C195.786 137.02 195.698 136.596 195.474 136.241C194.952 135.552 194.301 134.972 193.556 134.535C191.906 133.497 190.094 134.255 192.473 131.125C192.525 131.073 192.566 131.012 192.593 130.944C192.621 130.876 192.634 130.804 192.634 130.73C192.633 130.657 192.618 130.585 192.589 130.517C192.56 130.45 192.518 130.389 192.466 130.337C192.413 130.284 192.349 130.242 192.28 130.214C192.21 130.185 192.136 130.172 192.061 130.173C191.986 130.174 191.912 130.191 191.844 130.222C191.776 130.252 191.715 130.297 191.664 130.352C190.919 131.047 190.258 131.829 189.698 132.682C189.464 133.029 189.319 133.43 189.278 133.848C189.394 134.308 189.682 134.707 190.082 134.962C190.773 135.442 191.496 135.871 192.248 136.246C192.849 136.513 193.417 136.85 193.941 137.248C193.516 137.457 193.668 138.534 193.475 139.368C193.448 139.448 193.439 139.533 193.446 139.618C193.453 139.702 193.478 139.784 193.517 139.859C193.557 139.934 193.612 140 193.678 140.053C193.743 140.107 193.819 140.147 193.901 140.17C193.981 140.197 194.066 140.207 194.15 140.2C194.234 140.193 194.316 140.169 194.39 140.13C194.465 140.091 194.531 140.036 194.584 139.971C194.637 139.905 194.676 139.83 194.699 139.748Z" fill="black"/>
<path d="M169.577 121.446L159.577 133.446L159.077 134.946L158.077 132.946L168.077 120.446L169.577 121.446Z" fill="#434343" stroke="black" stroke-width="1.5"/>
</svg>
