<svg width="229" height="230" viewBox="0 0 229 230" fill="none" xmlns="http://www.w3.org/2000/svg">
<path d="M162 107.543L168.72 97.7609L170.96 94.5L175.44 96.6739L174.88 98.8478L175.44 99.9348L179.36 97.7609L184.4 100.478L183.84 103.739L190 108.087V109.717L183.84 118.957L181.6 119.5L170.96 113.522L162 107.543Z" fill="url(#paint0_linear_96_31539)"/>
<path d="M186 105.5L187.714 103.5L190 105.5L188.286 107.5L186 105.5Z" fill="#434343" stroke="black"/>
<path d="M157 132.444L170.269 114.5L172 115.028L158.731 133.5L157 132.444Z" fill="#504F4F" stroke="black" stroke-width="1.5"/>
<path d="M172.067 104.071L175.8 103.5L177.933 104.643L179 106.929L178.467 109.786L176.333 111.5L173.667 110.929L171.533 109.786L171 106.929L172.067 104.071Z" fill="#00643A"/>
<path d="M191.07 109.97C191.273 108.305 190.86 107.924 189.831 107.161C190.818 106.183 192.096 105.39 190.916 104.327C190.196 103.877 189.441 103.469 188.656 103.105C188.423 103.003 188.157 102.971 187.899 103.013C187.567 103.139 187.283 103.342 187.078 103.599C186.73 104.005 186.469 104.461 186.307 104.945L184.848 104.018C185.081 101.142 185.801 100.794 184.504 99.7903C182.89 98.7462 181.093 97.9277 179.18 97.3654C178.221 97.4014 177.641 98.0301 175.55 99.1262C176.433 97.5609 176.882 97.0661 176.457 96.3638C176.194 95.9338 171.598 93.2747 170.262 94.1607C169.47 94.9511 168.889 95.8799 168.558 96.8823C167.24 96.9813 166.004 99.1189 162.799 103.864C162.085 104.943 160.587 106.254 160.534 107.696C160.481 109.137 164.393 111.093 166.252 112.081C181.72 120.373 179.684 119.41 180.657 119.822C181.323 120.188 182.114 120.349 182.901 120.278C183.687 120.208 184.422 119.91 184.985 119.434C185.74 118.828 185.999 118.433 189.38 113.71C190.284 112.597 190.863 111.314 191.07 109.97ZM188.219 104.142C188.673 104.484 189.164 104.79 189.684 105.055C190.175 105.207 188.892 106.538 188.892 106.538L187.087 105.377C187.397 104.923 187.778 104.508 188.219 104.142ZM170.746 95.6893C171.268 95.1536 173.463 96.8794 174.855 97.0885C174.802 97.6107 174.997 96.7521 174.327 98.9537C172.869 98.2237 171.354 97.5798 169.793 97.0268L169.976 96.5922C170.209 96.3473 170.433 96.0362 170.746 95.6893ZM185.935 115.56C185.074 116.593 184.031 118.537 182.76 118.698C181.761 118.785 178.998 116.915 178.158 116.449C166.059 110.04 163.842 108.847 162.734 107.965C162.068 107.394 162.094 107.989 168.873 98.1527C170.405 98.1197 173.847 100.311 175.496 100.393C176.332 100.43 178.687 98.4015 179.445 98.4461C181.217 99.0012 182.847 99.8449 184.245 100.93C184.197 101.439 183.817 103.128 183.683 103.927C183.523 105.272 185.964 105.758 189.639 108.845C190.028 110.773 187.635 113.328 185.935 115.56Z" fill="black"/>
<path d="M178.74 104.678C178.701 104.632 178.652 104.592 178.595 104.562C178.539 104.532 178.476 104.512 178.41 104.503C178.345 104.493 178.277 104.495 178.213 104.508C178.148 104.521 178.086 104.545 178.032 104.578C177.978 104.611 177.932 104.653 177.897 104.702C177.862 104.75 177.838 104.804 177.827 104.86C177.817 104.916 177.819 104.974 177.834 105.029C177.849 105.085 177.877 105.137 177.916 105.184C178.571 105.827 178.932 106.652 178.933 107.506C178.933 108.359 178.572 109.184 177.917 109.828C177.534 110.117 177.082 110.33 176.592 110.452C176.102 110.574 175.587 110.603 175.083 110.536C169.795 109.913 170.698 104.835 173.987 104.364C174.573 104.291 176.12 104.834 176.483 104.281C176.523 104.225 176.549 104.164 176.561 104.099C176.572 104.035 176.569 103.97 176.551 103.907C176.533 103.844 176.5 103.784 176.455 103.732C176.41 103.68 176.353 103.636 176.288 103.602C175.621 103.345 174.894 103.223 174.163 103.245C173.432 103.268 172.716 103.434 172.072 103.731C171.428 104.028 170.872 104.448 170.448 104.958C170.024 105.469 169.742 106.056 169.625 106.675C168.724 112.45 177.055 113.492 179.202 110.686C179.956 109.795 180.322 108.707 180.238 107.61C180.153 106.513 179.623 105.476 178.74 104.678Z" fill="black"/>
<path d="M169.269 100.811C168.509 102.304 166.313 103.431 165.283 106.836C165.231 106.959 165.238 107.094 165.303 107.212C165.367 107.33 165.484 107.422 165.627 107.466C165.771 107.51 165.929 107.504 166.066 107.449C166.204 107.393 166.311 107.293 166.363 107.171C167.472 105.374 169.835 104.03 170.253 101.021C170.27 100.966 170.273 100.908 170.263 100.852C170.253 100.795 170.23 100.741 170.196 100.692C170.161 100.643 170.116 100.601 170.063 100.567C170.009 100.533 169.948 100.508 169.884 100.494C169.819 100.481 169.752 100.478 169.686 100.486C169.62 100.495 169.557 100.514 169.499 100.544C169.442 100.573 169.393 100.612 169.353 100.658C169.313 100.704 169.285 100.756 169.269 100.811Z" fill="black"/>
<path d="M187.812 108.787C187.099 108.303 186.323 107.892 185.498 107.563C185.431 107.531 185.357 107.511 185.281 107.504C185.205 107.497 185.128 107.503 185.055 107.521C184.981 107.54 184.913 107.571 184.854 107.612C184.795 107.654 184.746 107.705 184.71 107.763C184.307 108.367 185.225 108.43 186.54 109.566C186.257 109.968 185.94 110.352 185.592 110.715C185.064 110.492 184.551 110.243 184.056 109.97C183.762 109.879 183.353 109.752 183.159 109.597C183.324 109.047 183.55 108.512 183.833 107.999C183.91 107.908 183.944 107.795 183.929 107.684C183.913 107.572 183.849 107.47 183.749 107.397C183.649 107.324 183.521 107.286 183.389 107.29C183.258 107.295 183.134 107.341 183.041 107.421C182.602 107.982 182.217 108.573 181.888 109.188C181.719 109.469 181.675 109.793 181.762 110.1C182.188 110.6 182.701 111.042 183.282 111.41C184.076 111.941 185.499 112.778 186.375 112.368C187.358 111.609 188.02 110.594 188.26 109.48C188.248 109.344 188.201 109.212 188.124 109.092C188.047 108.972 187.941 108.868 187.812 108.787Z" fill="black"/>
<path d="M172.453 108.5C172.779 107.127 173.25 106.464 175 105.62C175 105.62 173.472 105.14 172.453 106.1C171.434 107.06 172.453 108.5 172.453 108.5Z" fill="#447A00"/>
<defs>
<linearGradient id="paint0_linear_96_31539" x1="176" y1="94.5" x2="176" y2="119.5" gradientUnits="userSpaceOnUse">
<stop stop-color="#4F4F4F"/>
<stop offset="1" stop-color="#787878"/>
</linearGradient>
</defs>
</svg>
