<svg width="229" height="230" viewBox="0 0 229 230" fill="none" xmlns="http://www.w3.org/2000/svg">
<path d="M167.757 118.889C171.232 121.313 174.281 122.947 174.566 122.539C174.851 122.13 172.265 119.834 168.79 117.409C165.315 114.985 162.266 113.351 161.981 113.759C161.696 114.168 164.282 116.464 167.757 118.889Z" fill="#B79962"/>
<path d="M176.527 115.087L176.528 115.088L176.529 115.088L176.529 115.088C176.529 115.088 176.529 115.088 176.529 115.089L176.105 115.97C176.44 116.227 176.605 116.647 176.638 117.203C176.672 117.758 176.567 118.368 176.444 118.887C176.391 119.109 176.185 119.258 175.776 119.324C175.589 119.354 175.403 119.358 175.259 119.353C175.189 119.351 175.131 119.346 175.092 119.342C175.073 119.341 175.059 119.339 175.05 119.338L175.041 119.337L175.041 119.337L175.041 119.337L175.04 119.337L175.04 119.337L175.04 119.337L174.066 119.2L174.531 120.068C174.846 120.656 174.637 121.234 174.147 121.775C173.907 122.04 173.623 122.265 173.369 122.43C173.242 122.511 173.127 122.575 173.035 122.62C172.989 122.642 172.951 122.658 172.922 122.669C172.902 122.663 172.875 122.655 172.841 122.641C172.726 122.598 172.57 122.525 172.374 122.421C171.983 122.214 171.483 121.913 170.93 121.568C170.479 121.286 169.992 120.973 169.509 120.663C168.828 120.225 168.157 119.795 167.618 119.47L167.618 119.47C167.448 119.368 167.057 119.069 166.533 118.646C166.021 118.233 165.414 117.727 164.831 117.235C164.248 116.743 163.69 116.266 163.278 115.912C163.097 115.756 162.944 115.624 162.829 115.526C162.831 115.511 162.832 115.496 162.833 115.481C162.857 115.145 162.859 114.473 162.789 113.098C162.759 112.511 162.902 112.114 163.1 111.836C163.302 111.551 163.591 111.352 163.912 111.214C164.233 111.076 164.566 111.007 164.825 110.975C164.952 110.959 165.058 110.952 165.131 110.949C165.167 110.947 165.194 110.947 165.212 110.947L165.23 110.947L165.232 110.947L165.232 110.947L165.232 110.947L165.233 110.947L165.233 110.947L165.694 110.958L165.741 110.498C165.863 109.295 166.718 108.689 167.676 108.371C168.151 108.213 168.624 108.138 168.982 108.103C169.159 108.086 169.306 108.079 169.407 108.076C169.457 108.074 169.496 108.074 169.521 108.074L169.548 108.074L169.554 108.074L169.554 108.074L169.554 108.074L169.554 108.074L169.554 108.074L169.989 108.085L170.059 107.655C170.076 107.554 170.136 107.457 170.361 107.372C170.6 107.283 170.939 107.246 171.323 107.251C171.698 107.256 172.073 107.301 172.358 107.345C172.499 107.367 172.616 107.389 172.697 107.405C172.737 107.413 172.769 107.42 172.789 107.424L172.812 107.429L172.817 107.43L172.818 107.43L172.818 107.43L172.818 107.43L172.818 107.43L172.818 107.43L173.417 107.568L173.428 107.002C173.439 106.991 173.455 106.977 173.481 106.957C173.58 106.883 173.748 106.798 173.986 106.714C174.455 106.547 175.084 106.422 175.675 106.352C175.795 106.337 175.911 106.326 176.021 106.316C175.826 106.619 175.742 106.979 175.731 107.338C175.711 107.968 175.902 108.672 176.135 109.296C176.372 109.93 176.672 110.53 176.91 110.968C177.029 111.188 177.134 111.369 177.21 111.496C177.248 111.56 177.278 111.61 177.299 111.645L177.324 111.685L177.331 111.696L177.333 111.699L177.334 111.7L177.334 111.7C177.334 111.7 177.334 111.7 177.756 111.432L177.334 111.7L177.347 111.721L177.361 111.739C177.361 111.739 177.361 111.739 177.361 111.739C177.361 111.739 177.361 111.739 177.361 111.739C177.362 111.739 177.362 111.74 177.362 111.74L177.368 111.748C177.374 111.755 177.383 111.768 177.396 111.786C177.421 111.821 177.458 111.876 177.502 111.946C177.59 112.089 177.705 112.293 177.809 112.541C178.019 113.044 178.163 113.676 178 114.309C177.924 114.606 177.797 114.778 177.67 114.886C177.538 114.997 177.377 115.062 177.203 115.096C177.028 115.13 176.855 115.128 176.722 115.116C176.657 115.11 176.605 115.102 176.57 115.096C176.553 115.093 176.541 115.09 176.534 115.089L176.527 115.087ZM176.527 115.087C176.527 115.087 176.527 115.087 176.527 115.087L176.527 115.087ZM162.601 115.328C162.601 115.328 162.601 115.328 162.601 115.328L162.301 115.674L162.601 115.328ZM162.601 115.328C162.596 115.323 162.589 115.318 162.583 115.313C162.561 115.296 162.531 115.276 162.494 115.258C162.453 115.238 162.402 115.22 162.345 115.212C162.339 115.438 162.326 115.562 162.313 115.629L162.601 115.328ZM172.961 122.679C172.962 122.679 172.96 122.679 172.957 122.678C172.96 122.678 172.961 122.679 172.961 122.679ZM173.414 107.019C173.414 107.019 173.414 107.018 173.416 107.016C173.415 107.018 173.414 107.019 173.414 107.019Z" fill="#EDA5FF" stroke="black"/>
<path d="M172.854 122.344C173.125 122.494 173.353 122.615 173.543 122.712C173.526 122.725 173.509 122.739 173.491 122.752C173.036 123.097 172.386 123.588 171.602 124.175C170.033 125.35 167.931 126.908 165.794 128.443C163.656 129.98 161.49 131.488 159.792 132.565C158.941 133.105 158.22 133.528 157.684 133.793C157.481 133.893 157.316 133.965 157.186 134.012C157.185 133.885 157.193 133.72 157.214 133.515C157.271 132.94 157.413 132.138 157.62 131.174C158.034 129.25 158.692 126.74 159.392 124.228C160.091 121.718 160.829 119.215 161.4 117.308C161.646 116.485 161.863 115.766 162.033 115.205C162.076 115.064 162.115 114.933 162.151 114.813C162.298 114.955 162.475 115.121 162.688 115.311C163.573 116.098 165.086 117.31 167.621 119.039C170.153 120.765 171.817 121.769 172.854 122.344ZM156.953 134.075C156.949 134.076 156.949 134.075 156.953 134.075L156.953 134.075Z" fill="#BE8C34" stroke="black"/>
<path d="M162.082 116.158L166.534 128.139" stroke="#9B6D1A" stroke-width="0.30152" stroke-miterlimit="10" stroke-linecap="round"/>
<path d="M161.25 117.942L165.324 129.032" stroke="#9B6D1A" stroke-width="0.30152" stroke-miterlimit="10" stroke-linecap="round"/>
<path d="M160.743 120.219L164.296 129.782" stroke="#9B6D1A" stroke-width="0.30152" stroke-miterlimit="10" stroke-linecap="round"/>
<path d="M159.988 122.213L163.088 130.651" stroke="#9B6D1A" stroke-width="0.30152" stroke-miterlimit="10" stroke-linecap="round"/>
<path d="M159.26 124.442L161.883 131.5" stroke="#9B6D1A" stroke-width="0.30152" stroke-miterlimit="10" stroke-linecap="round"/>
<path d="M158.732 127.053L160.671 132.33" stroke="#9B6D1A" stroke-width="0.30152" stroke-miterlimit="10" stroke-linecap="round"/>
<path d="M168.572 120.015L158.409 127.765" stroke="#9B6D1A" stroke-width="0.30152" stroke-miterlimit="10" stroke-linecap="round"/>
<path d="M169.109 121.363L158.953 129.167" stroke="#9B6D1A" stroke-width="0.30152" stroke-miterlimit="10" stroke-linecap="round"/>
<path d="M169.739 122.481L159.424 130.348" stroke="#9B6D1A" stroke-width="0.30152" stroke-miterlimit="10" stroke-linecap="round"/>
<path d="M170.265 123.828L159.981 131.729" stroke="#9B6D1A" stroke-width="0.30152" stroke-miterlimit="10" stroke-linecap="round"/>
<path d="M167.649 119.027L158.683 125.917" stroke="#9B6D1A" stroke-width="0.30152" stroke-miterlimit="10" stroke-linecap="round"/>
<path d="M165.965 118.429L159.262 123.581" stroke="#9B6D1A" stroke-width="0.30152" stroke-miterlimit="10" stroke-linecap="round"/>
<path d="M164.799 117.65L160.043 121.306" stroke="#9B6D1A" stroke-width="0.30152" stroke-miterlimit="10" stroke-linecap="round"/>
<path d="M163.738 116.657L160.54 119.113" stroke="#9B6D1A" stroke-width="0.30152" stroke-miterlimit="10" stroke-linecap="round"/>
<path d="M168.729 126.208L166.351 119.159" stroke="#9B6D1A" stroke-width="0.30152" stroke-miterlimit="10" stroke-linecap="round"/>
<path d="M167.46 127.27L164.122 117.71" stroke="#9B6D1A" stroke-width="0.30152" stroke-miterlimit="10" stroke-linecap="round"/>
</svg>
