<svg width="229" height="230" viewBox="0 0 229 230" fill="none" xmlns="http://www.w3.org/2000/svg">
<path d="M190.5 104.5L189.5 103.5L184.5 104.5L180 107L173.5 112L160.5 129L158.5 134V137H161.5L169.5 124.5L184.5 107.5L190.5 104.5Z" fill="#737373" stroke="black"/>
<path d="M186 116.5L187.5 113.5L189.5 113L192.5 114.5L196 117.5H197.5L200 114L203.5 112L206 113.5L205.5 117.5H202L196.5 118.5L192 118H187.5L186 116.5Z" fill="#2BA400"/>
<path d="M190.5 132L192 122L194 121.5L199 121L202 122.5L202.5 128L199 136.5L195 140H193.5L190.5 132Z" fill="#FF8F0C" stroke="black"/>
<path d="M197.974 120.52L199.495 120.64C199.649 120.667 199.788 120.744 199.889 120.859C199.989 120.975 200.044 121.12 200.044 121.27C200.044 121.42 199.989 121.566 199.889 121.681C199.788 121.796 199.649 121.874 199.495 121.9C198.828 121.9 197.974 121.9 197.057 121.74C196.363 121.702 195.668 121.702 194.974 121.74C194.102 121.7 193.239 121.931 192.516 122.4C192.307 122.56 192.266 122.94 192.182 123.34C192.016 124.18 191.953 125.12 191.891 125.58C191.708 126.799 191.61 128.029 191.599 129.26H192.787C193.05 129.24 193.315 129.24 193.578 129.26C193.835 129.24 194.093 129.24 194.349 129.26C194.995 129.36 195.578 129.54 196.245 129.64C196.376 129.654 196.498 129.712 196.589 129.803C196.681 129.895 196.736 130.014 196.745 130.14C196.754 130.212 196.747 130.284 196.725 130.353C196.703 130.422 196.666 130.486 196.617 130.54C196.568 130.595 196.508 130.639 196.44 130.67C196.373 130.701 196.299 130.718 196.224 130.72C195.545 130.951 194.848 131.132 194.141 131.26C193.85 131.29 193.557 131.29 193.266 131.26C192.971 131.24 192.679 131.2 192.391 131.14C192.065 131.075 191.745 130.988 191.432 130.88V131.44C191.572 133.384 191.957 135.305 192.578 137.16C192.781 137.769 193.083 138.343 193.474 138.86C193.764 139.27 194.202 139.563 194.703 139.68C194.912 139.68 195.057 139.48 195.245 139.32C195.432 139.16 195.995 138.48 196.245 138.2C196.495 137.92 196.557 137.8 196.703 137.62H196.557L195.953 137.34C195.767 137.223 195.592 137.089 195.432 136.94C195.056 136.573 194.701 136.186 194.37 135.78C194.282 135.739 194.205 135.681 194.143 135.608C194.082 135.536 194.038 135.451 194.014 135.36C193.99 135.269 193.988 135.175 194.006 135.083C194.025 134.991 194.064 134.904 194.121 134.829C194.178 134.753 194.252 134.69 194.337 134.645C194.423 134.599 194.517 134.572 194.614 134.566C194.711 134.559 194.809 134.573 194.9 134.607C194.991 134.641 195.073 134.693 195.141 134.76C195.62 134.96 196.078 135.08 196.557 135.28C196.753 135.35 196.941 135.438 197.12 135.54C197.295 135.642 197.462 135.756 197.62 135.88C197.709 135.962 197.792 136.049 197.87 136.14C198.29 135.56 198.68 134.959 199.037 134.34C199.841 132.931 200.537 131.467 201.12 129.96C201.414 129.219 201.616 128.447 201.724 127.66C201.193 127.79 200.647 127.851 200.099 127.84C199.753 127.805 199.411 127.738 199.078 127.64C198.752 127.547 198.438 127.419 198.141 127.26C197.472 126.891 196.831 126.477 196.224 126.02C196.147 125.984 196.078 125.934 196.021 125.872C195.965 125.81 195.922 125.737 195.894 125.659C195.867 125.581 195.857 125.498 195.863 125.416C195.87 125.334 195.893 125.254 195.932 125.18C196.016 125.038 196.152 124.93 196.314 124.879C196.475 124.827 196.651 124.835 196.807 124.9C197.703 125.18 198.557 125.32 199.432 125.52C199.766 125.62 200.078 125.7 200.391 125.82C200.861 126.004 201.341 126.164 201.828 126.3C201.799 125.009 201.646 123.724 201.37 122.46C201.352 122.389 201.348 122.315 201.361 122.243C201.373 122.171 201.4 122.102 201.441 122.04C201.482 121.979 201.536 121.925 201.599 121.884C201.662 121.843 201.733 121.814 201.807 121.8C201.956 121.77 202.112 121.797 202.24 121.876C202.369 121.954 202.46 122.078 202.495 122.22C202.944 123.818 203.175 125.465 203.182 127.12C203.156 128.263 202.952 129.395 202.578 130.48C202.045 132.084 201.39 133.648 200.62 135.16C199.843 136.714 198.893 138.183 197.787 139.54C197.294 140.228 196.697 140.842 196.016 141.36C195.537 141.703 194.942 141.86 194.349 141.8C193.465 141.675 192.655 141.258 192.057 140.62C191.32 139.806 190.786 138.842 190.495 137.8C189.844 135.762 189.473 133.651 189.391 131.52C189.312 129.409 189.48 127.296 189.891 125.22C190.016 124.7 190.141 123.48 190.432 122.54C190.565 122.012 190.854 121.533 191.266 121.16C192.035 120.633 192.946 120.327 193.891 120.28H194.328L197.974 120.52Z" fill="black"/>
<path d="M158.057 131.34C161.365 125.986 164.989 120.818 168.911 115.86C171.585 112.502 174.791 109.566 178.411 107.16C180.456 105.802 182.633 104.637 184.911 103.68C186.481 103.056 188.137 102.659 189.828 102.5C189.982 102.495 190.132 102.545 190.248 102.642C190.364 102.738 190.437 102.874 190.453 103.02C190.474 103.092 190.474 103.169 190.453 103.24C191.526 103.974 192.511 104.819 193.391 105.76C193.849 106.27 194.266 106.811 194.641 107.38C195.005 107.943 195.325 108.532 195.599 109.14C196.199 110.575 196.626 112.072 196.87 113.6C196.883 113.731 196.847 113.862 196.77 113.97C196.693 114.078 196.579 114.156 196.448 114.192C196.317 114.228 196.176 114.218 196.052 114.165C195.927 114.112 195.826 114.018 195.766 113.9C195.182 112.517 194.485 111.179 193.682 109.9C193.182 109.08 192.661 108.24 192.12 107.44C191.485 106.544 190.789 105.688 190.036 104.88C189.976 105.019 189.875 105.137 189.745 105.22C186.496 107.119 183.543 109.449 180.974 112.14C177.129 116.215 173.645 120.59 170.557 125.22C169.328 126.92 166.849 131.22 164.995 134.04C164.391 134.96 163.849 135.74 163.453 136.26C161.745 138.42 159.995 138.54 158.828 137.92C157.821 137.143 157.175 136.015 157.031 134.783C156.886 133.55 157.255 132.313 158.057 131.34ZM159.557 135.72C159.995 136.36 160.745 136.06 161.641 134.92C162.036 134.42 162.536 133.7 163.099 132.92C165.036 129.98 167.578 125.74 168.911 124.14C172.19 119.515 175.847 115.148 179.849 111.08C182.604 108.366 185.738 106.03 189.161 104.14H189.307L188.932 103.78C187.719 103.987 186.536 104.337 185.411 104.82C183.211 105.798 181.117 106.984 179.161 108.36C175.779 110.787 172.8 113.694 170.328 116.98C166.561 121.973 163.084 127.161 159.911 132.52C159.555 132.973 159.334 133.509 159.271 134.073C159.209 134.637 159.308 135.207 159.557 135.72Z" fill="black"/>
<path d="M185.12 115.4C185.315 114.726 185.668 114.104 186.152 113.581C186.636 113.057 187.238 112.647 187.911 112.38C188.859 112.138 189.852 112.114 190.811 112.308C191.77 112.503 192.668 112.911 193.432 113.5C194.829 114.552 195.961 115.892 196.745 117.42C197.424 115.898 198.337 114.483 199.453 113.22C200.522 112.063 202.014 111.347 203.62 111.22C204.443 111.19 205.25 111.44 205.898 111.927C206.547 112.414 206.994 113.106 207.161 113.88C207.367 114.586 207.367 115.332 207.161 116.037C206.956 116.742 206.552 117.38 205.995 117.88C205.555 118.221 205.017 118.424 204.453 118.46C203.599 118.46 202.682 118.16 201.87 118.18C201.159 118.215 200.457 118.349 199.786 118.58C199.261 118.742 198.752 118.949 198.266 119.2C197.687 119.462 197.048 119.577 196.41 119.535C195.772 119.493 195.156 119.295 194.62 118.96L193.703 118.68C192.923 118.52 192.121 118.479 191.328 118.56C190.235 118.755 189.127 118.868 188.016 118.9C187.396 118.855 186.796 118.67 186.266 118.36C185.755 118.063 185.363 117.609 185.155 117.072C184.947 116.535 184.935 115.945 185.12 115.4ZM199.599 117.06C200.271 116.813 200.97 116.638 201.682 116.54C202.37 116.54 203.182 116.66 203.932 116.64C204.185 116.649 204.432 116.563 204.62 116.4C204.859 116.128 205.018 115.798 205.081 115.447C205.143 115.095 205.106 114.734 204.974 114.4C204.807 113.78 204.391 113.2 203.682 113.24C202.578 113.249 201.519 113.664 200.724 114.4C199.693 115.385 198.809 116.502 198.099 117.72C198.579 117.46 199.08 117.239 199.599 117.06ZM187.307 116.72C187.631 116.938 188.016 117.057 188.411 117.06C189.307 117.06 190.245 116.94 191.078 116.92C192.044 116.915 193.005 117.043 193.932 117.3C194.458 117.461 194.968 117.668 195.453 117.92C194.849 117.064 194.128 116.29 193.307 115.62C192.691 115.036 191.927 114.617 191.09 114.403C190.254 114.189 189.374 114.188 188.536 114.4C188.263 114.522 188.018 114.694 187.814 114.907C187.61 115.12 187.452 115.369 187.349 115.64C187.161 116.02 186.932 116.46 187.307 116.72Z" fill="black"/>
</svg>
