<svg width="229" height="230" viewBox="0 0 229 230" fill="none" xmlns="http://www.w3.org/2000/svg">
<path d="M158.797 103.517L178.336 106.957L178.265 107.182L178.264 107.184L177.584 109.381L177.584 109.381L175.785 115.165L175.785 115.165L169.446 135.562L169.437 135.592L169.431 135.623L169.431 135.623C169.431 135.626 169.43 135.63 169.422 135.641C169.422 135.641 169.422 135.641 169.422 135.641C169.671 133.155 169.546 130.644 169.051 128.192L169.051 128.192L169.05 128.186C166.895 118.082 172.32 111.827 175.174 108.553L175.177 108.55C175.371 108.323 175.578 108.108 175.797 107.904L176.69 107.075L175.472 107.038C174.506 107.009 173.411 106.932 172.229 106.8L171.939 106.768L171.768 107.005C170.173 109.222 168.609 111.899 167.793 114.732C167.357 116.227 167.175 117.58 167.044 118.934C167.007 119.313 166.974 119.69 166.941 120.069C166.856 121.053 166.769 122.055 166.605 123.157C166.163 126.123 165.162 129.789 162.107 135.342C161.915 135.306 161.74 135.269 161.574 135.223L161.551 135.216L161.527 135.212C161.177 135.15 160.858 135.064 160.539 134.978C160.484 134.964 160.429 134.949 160.374 134.934C159.168 134.608 158.354 134.276 157.866 133.973C157.622 133.821 157.487 133.692 157.42 133.6C157.388 133.556 157.377 133.527 157.374 133.514C157.372 133.507 157.371 133.503 157.371 133.502C157.371 133.501 157.371 133.5 157.371 133.499L157.377 133.468L157.379 133.436L158.785 103.753L158.785 103.753L158.797 103.517Z" fill="#E22723" stroke="black"/>
<path d="M179.798 106.707C179.749 106.988 179.374 107.197 178.742 107.332C177.659 107.519 176.558 107.583 175.46 107.523C174.479 107.494 173.37 107.416 172.176 107.283C170.982 107.149 169.665 106.969 168.303 106.729C163.726 105.923 159.879 104.736 158.286 103.729C157.741 103.387 157.461 103.063 157.51 102.782C157.537 102.691 157.585 102.607 157.649 102.537C157.714 102.467 157.793 102.413 157.882 102.378C158.15 102.253 158.434 102.166 158.727 102.12C158.928 102.082 159.15 102.048 159.396 102.025C159.642 102.003 159.947 101.979 160.258 101.964C163.19 101.945 166.117 102.215 168.996 102.77C170.926 103.104 172.837 103.54 174.721 104.075C175.659 104.341 176.583 104.654 177.489 105.014C177.776 105.134 178.038 105.25 178.278 105.365L178.396 105.423C178.568 105.508 178.732 105.595 178.875 105.683C179.134 105.826 179.371 106.005 179.581 106.214C179.652 106.274 179.709 106.35 179.747 106.435C179.784 106.521 179.802 106.614 179.798 106.707Z" fill="#DDD5CC"/>
<path d="M157.51 102.782L158.546 101.667L179.205 105.305L179.798 106.707L157.51 102.782Z" fill="#DDD5CC"/>
<path d="M168.55 105.328C174.255 106.333 179.026 106.323 179.205 105.305C179.385 104.288 174.904 102.648 169.198 101.644C163.493 100.639 158.722 100.649 158.543 101.666C158.364 102.684 162.844 104.323 168.55 105.328Z" fill="#F7F2ED"/>
<path d="M168.611 104.979C173.875 105.906 178.26 105.989 178.405 105.164C178.55 104.339 174.401 102.919 169.137 101.992C163.873 101.065 159.488 100.982 159.343 101.807C159.198 102.632 163.347 104.052 168.611 104.979Z" fill="#EAE3DC"/>
<path d="M169.076 103.774C169.546 103.857 169.94 103.843 169.958 103.742C169.976 103.642 169.609 103.494 169.14 103.411C168.671 103.329 168.276 103.343 168.258 103.443C168.24 103.543 168.607 103.691 169.076 103.774Z" fill="#DD230A"/>
<path d="M171.35 95.8365L169.65 95.5371L168.261 103.425L169.961 103.725L171.35 95.8365Z" fill="#DD230A"/>
<path d="M170.468 95.8679C170.938 95.9506 171.333 95.9364 171.35 95.8362C171.368 95.736 171.002 95.5878 170.532 95.5052C170.063 95.4225 169.668 95.4367 169.65 95.5368C169.633 95.637 169.999 95.7852 170.468 95.8679Z" fill="#C92211"/>
<path d="M174.8 108.21C171.937 111.493 166.369 117.92 168.564 128.276C169.103 130.947 169.194 133.689 168.832 136.39C167.77 136.591 165.925 136.516 163.143 136.026C162.877 135.979 162.617 135.933 162.372 135.89C168.806 124.34 166.581 120.67 168.275 114.864C169.073 112.119 170.597 109.483 172.178 107.275C173.371 107.408 174.48 107.486 175.461 107.516C175.227 107.735 175.007 107.966 174.8 108.21Z" fill="#FFEEEE"/>
<path d="M162.462 135.471C162.484 135.488 162.531 135.478 162.557 135.479C162.8 135.481 163.046 135.552 163.283 135.596C163.967 135.723 164.662 135.803 165.35 135.899C165.712 135.949 166.075 135.988 166.44 136.012C166.589 136.022 166.738 136.017 166.887 136.022C167.088 136.028 167.289 136.042 167.49 136.05C167.842 136.064 168.194 136.039 168.535 135.942C168.642 135.911 168.745 135.863 168.856 135.843C168.945 135.827 169.031 135.802 169.116 135.773" stroke="black" stroke-linecap="round"/>
</svg>
