<svg width="229" height="230" viewBox="0 0 229 230" fill="none" xmlns="http://www.w3.org/2000/svg">
<path d="M160.171 132.842L160.172 132.839C160.176 132.83 160.181 132.82 160.185 132.809C160.233 132.696 160.242 132.564 160.202 132.436C160.135 132.218 159.956 132.091 159.832 132.017C159.554 131.85 159.004 131.645 157.902 131.376C157.565 131.294 157.33 131.045 157.201 130.642C157.068 130.229 157.068 129.701 157.197 129.214C157.327 128.719 157.566 128.352 157.82 128.184C157.94 128.105 158.062 128.069 158.194 128.073C158.33 128.078 158.51 128.128 158.737 128.28C160.073 129.171 161.359 128.942 162.267 128.511C162.716 128.297 163.08 128.033 163.331 127.824C163.457 127.719 163.557 127.626 163.626 127.558C163.651 127.534 163.671 127.513 163.688 127.496L170.823 123.02L171.453 128.039C171.427 128.056 171.399 128.073 171.37 128.092C171.147 128.235 170.829 128.442 170.449 128.696C169.691 129.204 168.683 129.904 167.689 130.668C166.7 131.429 165.707 132.267 164.991 133.052C164.634 133.444 164.329 133.84 164.129 134.223C163.935 134.595 163.802 135.029 163.917 135.456C164.026 135.862 163.992 136.177 163.89 136.414C163.786 136.654 163.594 136.859 163.312 137.013C162.734 137.327 161.809 137.405 160.79 137.081C160.327 136.932 160.064 136.641 159.91 136.263C159.748 135.864 159.708 135.359 159.745 134.829C159.782 134.306 159.892 133.797 159.995 133.416C160.045 133.226 160.094 133.071 160.129 132.964C160.147 132.91 160.161 132.869 160.171 132.842Z" fill="#CEC3BC" stroke="black"/>
<path d="M182.143 106.784L182.143 106.784C185.17 99.7362 190.546 96.6028 195.607 96.3945C200.689 96.1854 205.479 98.9145 207.413 103.678C209.485 108.786 209.302 112.607 207.87 115.487C206.43 118.383 203.679 120.425 200.417 121.861C193.883 124.735 185.547 125.066 182.608 125.106C176.628 125.187 173.18 127.025 172.652 127.378L172.652 127.378L172.647 127.382C171.508 128.166 170.76 128.623 170.261 128.864C170.012 128.985 169.846 129.041 169.739 129.062C169.7 129.07 169.673 129.073 169.657 129.073C169.656 129.072 169.655 129.07 169.654 129.069C169.625 129.025 169.6 128.971 169.552 128.868C169.546 128.855 169.539 128.841 169.532 128.827C169.423 128.593 169.245 128.228 168.834 127.968C168.718 127.894 168.607 127.735 168.546 127.417C168.486 127.103 168.49 126.706 168.538 126.275C168.633 125.436 168.879 124.587 168.989 124.208L168.996 124.182C168.995 124.186 168.995 124.187 168.995 124.188C168.996 124.188 169.02 124.138 169.115 124.03C169.213 123.917 169.354 123.779 169.534 123.621C169.892 123.307 170.374 122.942 170.897 122.588C171.42 122.233 171.974 121.896 172.477 121.633C172.992 121.363 173.411 121.195 173.674 121.145C174.181 121.05 174.676 120.675 175.175 120.123C175.687 119.557 176.264 118.735 176.925 117.62C178.247 115.387 179.941 111.91 182.143 106.784Z" fill="#AD6F36" stroke="black"/>
</svg>
