<svg width="229" height="230" viewBox="0 0 229 230" fill="none" xmlns="http://www.w3.org/2000/svg">
<path d="M174.5 127.5L170 115.5L194.5 102L174.5 127.5Z" fill="#96C3FF" stroke="black"/>
<path d="M170.5 115L162 106L193.5 102L170.5 115Z" fill="#96C3FF" stroke="black"/>
<path d="M195.217 100.979C195.319 101.154 195.367 101.354 195.355 101.556C195.344 101.758 195.273 101.952 195.153 102.114L175.891 128.061C175.722 128.289 175.492 128.466 175.228 128.573C174.964 128.679 174.676 128.711 174.396 128.664C174.115 128.618 173.852 128.494 173.637 128.308C173.422 128.122 173.262 127.88 173.176 127.609L169.467 115.975L161.179 107.008C160.985 106.799 160.853 106.541 160.797 106.261C160.741 105.982 160.763 105.692 160.861 105.425C160.959 105.157 161.129 104.922 161.352 104.745C161.576 104.567 161.843 104.456 162.126 104.421L194.198 100.477C194.398 100.452 194.602 100.487 194.783 100.576C194.964 100.666 195.115 100.806 195.217 100.981L195.217 100.979ZM171.611 115.918L174.834 126.022L190.5 104.918L171.611 115.918ZM189.463 103.135L163.376 106.346L170.576 114.134L189.463 103.135Z" fill="#0F172A"/>
<line x1="170.776" y1="115.131" x2="157.776" y2="131.131" stroke="black" stroke-width="2"/>
<path d="M174.5 127.5L170 115.5L194.5 102L174.5 127.5Z" fill="#96C3FF" stroke="black"/>
<path d="M170.5 115L162 106L193.5 102L170.5 115Z" fill="#96C3FF" stroke="black"/>
<path d="M195.217 100.979C195.319 101.154 195.367 101.354 195.355 101.556C195.344 101.758 195.273 101.952 195.153 102.114L175.891 128.061C175.722 128.289 175.492 128.466 175.228 128.573C174.964 128.679 174.676 128.711 174.396 128.664C174.115 128.618 173.852 128.494 173.637 128.308C173.422 128.122 173.262 127.88 173.176 127.609L169.467 115.975L161.179 107.008C160.985 106.799 160.853 106.541 160.797 106.261C160.741 105.982 160.763 105.692 160.861 105.425C160.959 105.157 161.129 104.922 161.352 104.745C161.576 104.567 161.843 104.456 162.126 104.421L194.198 100.477C194.398 100.452 194.602 100.487 194.783 100.576C194.964 100.666 195.115 100.806 195.217 100.981L195.217 100.979ZM171.611 115.918L174.834 126.022L190.5 104.918L171.611 115.918ZM189.463 103.135L163.376 106.346L170.576 114.134L189.463 103.135Z" fill="#0F172A"/>
<line x1="170.776" y1="115.131" x2="157.776" y2="131.131" stroke="black" stroke-width="2"/>
</svg>
